<svg xmlns="http://www.w3.org/2000/svg" viewBox="0 0 2400 2400" xmlns:c2pa="http://c2pa.org/manifest"><metadata><c2pa:manifest>AAAWgmp1bWIAAAAeanVtZGMycGEAEQAQgAAAqgA4m3EDYzJwYQAAABZcanVtYgAAAEdqdW1kYzJtYQARABCAAACqADibcQN1cm46YzJwYTpiNDQ4YjVjNi0yNzFiLTQ2NWEtYmMzMS1mOWRlNWQ0YTUyNTcAAAADl2p1bWIAAAApanVtZGMyYXMAEQAQgAAAqgA4m3EDYzJwYS5hc3NlcnRpb25zAAAAALxqdW1iAAAARGp1bWRjYm9yABEAEIAAAKoAOJtxE2MycGEuaW5ncmVkaWVudC52MwAAAAAYYzJzaJZZlaKzGEntxohq+wN44K4AAABwY2JvcqNpZGM6Zm9ybWF0bWltYWdlL3N2Zyt4bWxqaW5zdGFuY2VJRHgseG1wOmlpZDo0NDc2NjVkYS01YzUzLTQxYjItOGI4Yi04NzFkZDk0Yzg0MWNscmVsYXRpb25zaGlwaHBhcmVudE9mAAAB4mp1bWIAAABBanVtZGNib3IAEQAQgAAAqgA4m3ETYzJwYS5hY3Rpb25zLnYyAAAAABhjMnNonnZ8+Xca0ce6sMwIO/jWwwAAAZljYm9yomdhY3Rpb25zgqJmYWN0aW9ua2MycGEub3BlbmVkanBhcmFtZXRlcnOha2luZ3JlZGllbnRzgaJjdXJseC1zZWxmI2p1bWJmPWMycGEuYXNzZXJ0aW9ucy9jMnBhLmluZ3JlZGllbnQudjNkaGFzaFggCe0TJu1i78bpTeN1P8oBndSNLsUPMLHpDxM70E373WykZmFjdGlvbngdY29tLmFudGhyb3BpYy5jbGF1ZGUucHJvdmlkZWRqcGFyYW1ldGVyc6F4H2NvbS5hbnRocm9waWMub3JpZ2luLWNvbmZpZGVuY2VndW5rbm93bmtkZXNjcmlwdGlvbnhmQ2xhdWRlIHByb3ZpZGVkIHRoaXMgZmlsZSBhdCB0aGUgcmVxdWVzdCBvZiBhIHVzZXIgYW5kIG1heSBoYXZlIGNyZWF0ZWQgb3IgbW9kaWZpZWQgdGhlIGZpbGUgY29udGVudHMubXNvZnR3YXJlQWdlbnShZG5hbWVmQ2xhdWRlcmFsbEFjdGlvbnNJbmNsdWRlZPUAAADIanVtYgAAAEBqdW1kY2JvcgARABCAAACqADibcRNjMnBhLmhhc2guZGF0YQAAAAAYYzJzaGlaTS3ONh09uIH67E1CxKYAAACAY2JvcqVjYWxnZnNoYTI1NmNwYWRNAAAAAAAAAAAAAAAAAGRoYXNoWCB85lqP0qOphRc6HrnmiMTQWXq2jIN51lmkUdUZcZ2Q/2RuYW1lbmp1bWJmIG1hbmlmZXN0amV4Y2x1c2lvbnOBomVzdGFydBh/Zmxlbmd0aBkeBAAAAj5qdW1iAAAAJ2p1bWRjMmNsABEAEIAAAKoAOJtxA2MycGEuY2xhaW0udjIAAAACD2Nib3KlY2FsZ2ZzaGEyNTZpc2lnbmF0dXJleE1zZWxmI2p1bWJmPS9jMnBhL3VybjpjMnBhOmI0NDhiNWM2LTI3MWItNDY1YS1iYzMxLWY5ZGU1ZDRhNTI1Ny9jMnBhLnNpZ25hdHVyZWppbnN0YW5jZUlEeCx4bXA6aWlkOmE5YzkyYzg5LWRmYzQtNGViZC04MTA1LWNjN2I2MWE3ZGNlZXJjcmVhdGVkX2Fzc2VydGlvbnODomN1cmx4LXNlbGYjanVtYmY9YzJwYS5hc3NlcnRpb25zL2MycGEuaW5ncmVkaWVudC52M2RoYXNoWCAJ7RMm7WLvxulN43U/ygGd1I0uxQ8wsekPEzvQTfvdbKJjdXJseCpzZWxmI2p1bWJmPWMycGEuYXNzZXJ0aW9ucy9jMnBhLmFjdGlvbnMudjJkaGFzaFggPmZCMK5/mwxR0KLGmBsfpWeptkF5HZCPM8OUy5HX/p2iY3VybHgpc2VsZiNqdW1iZj1jMnBhLmFzc2VydGlvbnMvYzJwYS5oYXNoLmRhdGFkaGFzaFggJSiL3njFDB0iFMCtWm1WUzSxpFAsKxLJsSR3bXZoldN0Y2xhaW1fZ2VuZXJhdG9yX2luZm+jZG5hbWVvQW50aHJvcGljIEZpbGVzZ3ZlcnNpb25lMS4wLjBrc3BlY1ZlcnNpb25lMi40LjAAABA4anVtYgAAAChqdW1kYzJjcwARABCAAACqADibcQNjMnBhLnNpZ25hdHVyZQAAABAIY2JvctKEWQISogEmGCFZAgowggIGMIIBjaADAgECAhRA5aAK7sI50L64g/oGQgU9Z1UTADAKBggqhkjOPQQDAzBJMRcwFQYDVQQKEw5BbnRocm9waWMsIFBCQzEuMCwGA1UEAxMlQW50aHJvcGljIENvbnRlbnQgQ3JlZGVudGlhbHMgUm9vdCBDQTAeFw0yNjA4MDcxODQzNTZaFw0yODA4MDYxOTQzNTZaMEQxFzAVBgNVBAoTDkFudGhyb3BpYywgUEJDMSkwJwYDVQQDEyBBbnRocm9waWMgQ2xhdWRlIENvbnRlbnQgU2lnbmluZzBZMBMGByqGSM49AgEGCCqGSM49AwEHA0IABJh6CmvLUBgFFNU0vUKlOVtE6djd17L5SuwX0LemFisBM3dkd/3cyjxFA3Qo5S46fX0/ihY0VZ7mfb9KF703t5OjWDBWMA4GA1UdDwEB/wQEAwIHgDAVBgNVHSUEDjAMBgorBgEEAYPoXgIBMAwGA1UdEwEB/wQCMAAwHwYDVR0jBBgwFoAUzlHiBIFOZFsj+OPEz5o+nMHXXMIwCgYIKoZIzj0EAwMDZwAwZAIwMXMdFJ4BetLLVY7ORuE9noqbbAZOZn/aArXyTwFAZfKrPzxF2vPoJNf1+UCdg1XGAjBwX1zd9WGqYkqmL5SFqw1QySjr1zJfpJM9+1rdDwSPLMOPOjKuiXjoU/pUUeG9RwmhY3BhZFkNngAAAAAAAAAAAAAAAAAAAAAAAAAAAAAAAAAAAAAAAAAAAAAAAAAAAAAAAAAAAAAAAAAAAAAAAAAAAAAAAAAAAAAAAAAAAAAAAAAAAAAAAAAAAAAAAAAAAAAAAAAAAAAAAAAAAAAAAAAAAAAAAAAAAAAAAAAAAAAAAAAAAAAAAAAAAAAAAAAAAAAAAAAAAAAAAAAAAAAAAAAAAAAAAAAAAAAAAAAAAAAAAAAAAAAAAAAAAAAAAAAAAAAAAAAAAAAAAAAAAAAAAAAAAAAAAAAAAAAAAAAAAAAAAAAAAAAAAAAAAAAAAAAAAAAAAAAAAAAAAAAAAAAAAAAAAAAAAAAAAAAAAAAAAAAAAAAAAAAAAAAAAAAAAAAAAAAAAAAAAAAAAAAAAAAAAAAAAAAAAAAAAAAAAAAAAAAAAAAAAAAAAAAAAAAAAAAAAAAAAAAAAAAAAAAAAAAAAAAAAAAAAAAAAAAAAAAAAAAAAAAAAAAAAAAAAAAAAAAAAAAAAAAAAAAAAAAAAAAAAAAAAAAAAAAAAAAAAAAAAAAAAAAAAAAAAAAAAAAAAAAAAAAAAAAAAAAAAAAAAAAAAAAAAAAAAAAAAAAAAAAAAAAAAAAAAAAAAAAAAAAAAAAAAAAAAAAAAAAAAAAAAAAAAAAAAAAAAAAAAAAAAAAAAAAAAAAAAAAAAAAAAAAAAAAAAAAAAAAAAAAAAAAAAAAAAAAAAAAAAAAAAAAAAAAAAAAAAAAAAAAAAAAAAAAAAAAAAAAAAAAAAAAAAAAAAAAAAAAAAAAAAAAAAAAAAAAAAAAAAAAAAAAAAAAAAAAAAAAAAAAAAAAAAAAAAAAAAAAAAAAAAAAAAAAAAAAAAAAAAAAAAAAAAAAAAAAAAAAAAAAAAAAAAAAAAAAAAAAAAAAAAAAAAAAAAAAAAAAAAAAAAAAAAAAAAAAAAAAAAAAAAAAAAAAAAAAAAAAAAAAAAAAAAAAAAAAAAAAAAAAAAAAAAAAAAAAAAAAAAAAAAAAAAAAAAAAAAAAAAAAAAAAAAAAAAAAAAAAAAAAAAAAAAAAAAAAAAAAAAAAAAAAAAAAAAAAAAAAAAAAAAAAAAAAAAAAAAAAAAAAAAAAAAAAAAAAAAAAAAAAAAAAAAAAAAAAAAAAAAAAAAAAAAAAAAAAAAAAAAAAAAAAAAAAAAAAAAAAAAAAAAAAAAAAAAAAAAAAAAAAAAAAAAAAAAAAAAAAAAAAAAAAAAAAAAAAAAAAAAAAAAAAAAAAAAAAAAAAAAAAAAAAAAAAAAAAAAAAAAAAAAAAAAAAAAAAAAAAAAAAAAAAAAAAAAAAAAAAAAAAAAAAAAAAAAAAAAAAAAAAAAAAAAAAAAAAAAAAAAAAAAAAAAAAAAAAAAAAAAAAAAAAAAAAAAAAAAAAAAAAAAAAAAAAAAAAAAAAAAAAAAAAAAAAAAAAAAAAAAAAAAAAAAAAAAAAAAAAAAAAAAAAAAAAAAAAAAAAAAAAAAAAAAAAAAAAAAAAAAAAAAAAAAAAAAAAAAAAAAAAAAAAAAAAAAAAAAAAAAAAAAAAAAAAAAAAAAAAAAAAAAAAAAAAAAAAAAAAAAAAAAAAAAAAAAAAAAAAAAAAAAAAAAAAAAAAAAAAAAAAAAAAAAAAAAAAAAAAAAAAAAAAAAAAAAAAAAAAAAAAAAAAAAAAAAAAAAAAAAAAAAAAAAAAAAAAAAAAAAAAAAAAAAAAAAAAAAAAAAAAAAAAAAAAAAAAAAAAAAAAAAAAAAAAAAAAAAAAAAAAAAAAAAAAAAAAAAAAAAAAAAAAAAAAAAAAAAAAAAAAAAAAAAAAAAAAAAAAAAAAAAAAAAAAAAAAAAAAAAAAAAAAAAAAAAAAAAAAAAAAAAAAAAAAAAAAAAAAAAAAAAAAAAAAAAAAAAAAAAAAAAAAAAAAAAAAAAAAAAAAAAAAAAAAAAAAAAAAAAAAAAAAAAAAAAAAAAAAAAAAAAAAAAAAAAAAAAAAAAAAAAAAAAAAAAAAAAAAAAAAAAAAAAAAAAAAAAAAAAAAAAAAAAAAAAAAAAAAAAAAAAAAAAAAAAAAAAAAAAAAAAAAAAAAAAAAAAAAAAAAAAAAAAAAAAAAAAAAAAAAAAAAAAAAAAAAAAAAAAAAAAAAAAAAAAAAAAAAAAAAAAAAAAAAAAAAAAAAAAAAAAAAAAAAAAAAAAAAAAAAAAAAAAAAAAAAAAAAAAAAAAAAAAAAAAAAAAAAAAAAAAAAAAAAAAAAAAAAAAAAAAAAAAAAAAAAAAAAAAAAAAAAAAAAAAAAAAAAAAAAAAAAAAAAAAAAAAAAAAAAAAAAAAAAAAAAAAAAAAAAAAAAAAAAAAAAAAAAAAAAAAAAAAAAAAAAAAAAAAAAAAAAAAAAAAAAAAAAAAAAAAAAAAAAAAAAAAAAAAAAAAAAAAAAAAAAAAAAAAAAAAAAAAAAAAAAAAAAAAAAAAAAAAAAAAAAAAAAAAAAAAAAAAAAAAAAAAAAAAAAAAAAAAAAAAAAAAAAAAAAAAAAAAAAAAAAAAAAAAAAAAAAAAAAAAAAAAAAAAAAAAAAAAAAAAAAAAAAAAAAAAAAAAAAAAAAAAAAAAAAAAAAAAAAAAAAAAAAAAAAAAAAAAAAAAAAAAAAAAAAAAAAAAAAAAAAAAAAAAAAAAAAAAAAAAAAAAAAAAAAAAAAAAAAAAAAAAAAAAAAAAAAAAAAAAAAAAAAAAAAAAAAAAAAAAAAAAAAAAAAAAAAAAAAAAAAAAAAAAAAAAAAAAAAAAAAAAAAAAAAAAAAAAAAAAAAAAAAAAAAAAAAAAAAAAAAAAAAAAAAAAAAAAAAAAAAAAAAAAAAAAAAAAAAAAAAAAAAAAAAAAAAAAAAAAAAAAAAAAAAAAAAAAAAAAAAAAAAAAAAAAAAAAAAAAAAAAAAAAAAAAAAAAAAAAAAAAAAAAAAAAAAAAAAAAAAAAAAAAAAAAAAAAAAAAAAAAAAAAAAAAAAAAAAAAAAAAAAAAAAAAAAAAAAAAAAAAAAAAAAAAAAAAAAAAAAAAAAAAAAAAAAAAAAAAAAAAAAAAAAAAAAAAAAAAAAAAAAAAAAAAAAAAAAAAAAAAAAAAAAAAAAAAAAAAAAAAAAAAAAAAAAAAAAAAAAAAAAAAAAAAAAAAAAAAAAAAAAAAAAAAAAAAAAAAAAAAAAAAAAAAAAAAAAAAAAAAAAAAAAAAAAAAAAAAAAAAAAAAAAAAAAAAAAAAAAAAAAAAAAAAAAAAAAAAAAAAAAAAAAAAAAAAAAAAAAAAAAAAAAAAAAAAAAAAAAAAAAAAAAAAAAAAAAAAAAAAAAAAAAAAAAAAAAAAAAAAAAAAAAAAAAAAAAAAAAAAAAAAAAAAAAAAAAAAAAAAAAAAAAAAAAAAAAAAAAAAAAAAAAAAAAAAAAAAAAAAAAAAAAAAAAAAAAAAAAAAAAAAAAAAAAAAAAAAAAAAAAAAAAAAAAAAAAAAAAAAAAAAAAAAAAAAAAAAAAAAAAAAAAAAAAAAAAAAAAAAAAAAAAAAAAAAAAAAAAAAAAAAAAAAAAAAAAAAAAAAAAAAAAAAAAAAAAAAAAAAAAAAAAAAAAAAAAAAAAAAAAAAAAAAAAAAAAAAAAAAAAAAAAAAAAAAAAAAAAAAAAAAAAAAAAAAAAAAAAAAAAAAAAAAAAAAAAAAAAAAAAAAAAAAAAAAAAAAAAAAAAAAAAAAAAAAAAAAAAAAAAAAAAAAAAAAAAAAAAAAAAAAAAAAAAAAAAAAAAAAAAAAAAAAAAAAAAAAAAAAAAAAAAAAAAAAAAAAAAAAAAAAAAAAAAAAAAAAAAAAAAAAAAAAAAAAAAAAAAAAAAAAAAAAAAAAAAAAAAAAAAAAAAAAAAAAAAAAAAAAAAAAAAAAAAAAAAAAAAAAAAAAAAAAAAAAAAAAAAAAAAAAAAAAAAAAAAAAAAAAAAAAAAAAAAAAAAAAAAAAAAAAAAAAAAAAAAAAAAAAAAAAAAAAAAAAAAAAAAAAAAAAAAAAAAAAAAAAAAAAAAAAAAAAAAAAAAAAAAAAAAAAAAAAAAAAAAAAAAAAAAAAAAAAAAAAAAAAAAAAAAAAAAAAAAAAAAAAAAAAAAAAAAAAAAAAAAAAAAAAAAAAAAAAAAAAAAAAAAAAAAAAAAAAAAAAAAAAAAAAAAAAAAAAAAAAAAAAAAAAAAAAAAAAAAAAAAAAAAAAAAAAAAAAAAAAAAAAAAAAAAAAAAAAAAAAAAAAAAAAAAAAAAAAAAAAAAAAAAAAAAAAAAAAAAAAAAAAAAAAAAAAAAAAAAAAAAAAAAAAAAAAAAAAAAAAAAAAAAAAAAAAAAAAAAAAAAAAAAAAAAAAAAAAAAAAAAAAAAAAAAAAAAAAAAAAAAAAAAAAAAAAAAAAAAAAAAAAAAAAAAAAAAAAAAAAAAAAAAAAAAAAAAAAAAAAAAAAAAAAAAAAAAAAAAAAAAAAAAAAAAAAAAAAAAAAAAAAAAAAAAAAAAAAAAAAAAAAAAAAAAAAAAAAAAAAAAAAAAAAAAAAAAAAAAAAAAAAAAAAAAAAAAAAAAAAAAAAAAAAAAAAAAAAAAAAAAAAAAAAAAAAAAAAAAAAAAAAAAAAAAAAAAAAAAAAAAAAAAAAAAAAAAAAAAAAAAAAAAAAAAAAAAAAAAAAAAAAAAAAAAAAAAAAAAAAPZYQAs3JWfNQdIp0FYLTusmvRcK9wxTBAv66CfEF4vCFVGFPa9Yuju2rW+S9Y87EqF4Se3N3icupoOXY7jOd3UfeKo=</c2pa:manifest></metadata>
<rect class="bg" width="2400" height="2400" style="fill:var(--bg,#b31d1e)"></rect>
<path class="color-1" fill-rule="evenodd" style="fill:var(--color-1,#ddce5d)" d="M641 354.9l-5 1.6l-3 1.8l-2.7 2.7l-2.5 4l-2.2 6l-0.8 7l0.8 9l3.2 7l3.9 5l4.3 4l14 10.5l7 7.6l2.2 3.9l0.9 3l-0.1 11l-2.8 7l-3.2 3.2l-4 1.8l-7 0.3l-3-0.4l-3-1.3l-2.2-1.6l-2.2-3l-2.2-6l-0.4-10l-1-1.7l-4-0.2l-1.4 0.9l-0.1 9l2.3 9l2.2 3.8l2.8 3.2l3.2 2.2l4 1.7l5 0.9l4 0l5-0.8l4-1.5l4-2.7l3.2-3.8l2.4-5l1.2-5l0-12l-2.5-7l-4.2-6l-8.1-7.3l-11.6-8.7l-4.4-4.4l-2.6-3.6l-1.9-4l-1-5l0.8-9l2.5-6l3.2-3.2l5-1.9l5-0.4l5 1.2l3 1.9l2.3 2.4l2.7 6l1 9l1 0.8l3 0.1l1.7-0.9l0.2-6l-1.2-6l-1.6-4l-2.6-4l-3.2-3l-4.3-2.3l-4-1.1zM1130 354.9l-5 1.8l-5.5 4.3l-3.2 5l-1.8 6l-0.8 9l0.2 55l1.9 9l2.1 4l3.1 3.7l3.2 2.3l3.8 1.7l5 1l5 0.1l5-1l4-1.7l4-3l3.1-4.1l2.1-5l1.1-5l0.3-16l-0.6-1.3l-1-0.3l-3 0l-1.4 0.6l-0.5 14l-0.7 5l-2 5l-3.8 4l-4.6 2.1l-8 0.1l-5-2.2l-3.1-3l-2.1-4l-1.2-7l-0.1-56l0.6-6l1.6-5l3.3-4.1l4-2.4l4-0.9l3-0.1l5 1.1l2 1l4.3 4.4l2.3 6l0.7 14l0.7 1.2l4 0.2l1.1-0.4l0.5-2l-0.1-10l-1-6l-1.4-4l-2.5-4l-3.6-3.6l-5-2.7l-4-1.1l-7-0.1zM1203 355l-5 1.7l-3 1.9l-2.5 2.4l-2.5 4.1l-1.5 3.9l-1 5l-0.4 6l0.6 6l2.2 6l5 7l6.1 5.4l13.9 10.6l5.3 6l2.2 4l1.1 4l0.3 5l-0.6 5l-2.2 6l-2 2.8l-2 1.6l-4 1.7l-8 0.2l-5.7-2.3l-3.5-4l-2.1-6l-0.6-10l-0.2-1l-0.9-0.8l-4-0.1l-1.2 0.9l0 8l1.9 9l2 4l3.3 3.9l3 2.2l4 1.7l5 0.9l5 0.1l5-1l4-1.7l4-3l2.5-3.1l2-4l1.5-6l0.5-6l-0.5-6l-1.9-6l-5.1-7.4l-5-4.6l-15-11.5l-6.4-7.5l-1.8-4l-0.8-4l-0.1-5l0.7-5l2.4-5.8l3-3.3l2-1.1l4-1.1l5-0.1l6 2.1l4.2 4.3l2 5l0.8 8l1 1.7l3 0.2l2-0.7l0.2-5.2l-1-6l-1.8-5l-2.4-3.8l-3-2.8l-4.1-2.4l-4.9-1.4l-7-0.1zM180 355.7l-0.6 1.3l0.2 99l1.4 1l21 0l8-1.2l5-2.3l4-4l2.8-5.5l1.3-6l0.3-14l-0.6-6l-1.1-4l-1.3-3l-2.4-3.4l-3-2.4l-4.2-2.2l0.4-1l3.8-2l2.3-2l1.9-3l1.4-4l0.9-6l0-9l-1.3-9l-1.8-4l-2.3-3l-3.1-2.3l-3-1.2l-6-1.1zM254 355.5l-1.2 1.5l0 74l0.2 5l1 6l1.9 5l1.8 3l2.7 3l3.6 2.5l4 1.5l5 0.8l4 0l5-1l5.6-2.8l4-4l2.7-5l1.8-8l0.3-80l-0.4-1.1l-1-0.5l-2 0l-2 0.1l-1 1.5l0 75l-0.8 8l-1.9 5l-3.5 4l-3.9 2l-5.9 0.6l-5-0.9l-4.4-2.7l-2.9-4l-1.8-6l-0.3-5l0-76l-0.4-1l-1.2-0.6zM327 355.9l-0.4 1.1l0.2 99l1.2 0.9l1 0.1l20 0l8-1.1l5-2.3l4-3.4l3.2-5.2l1.6-5l0.8-7l0-53l-1.4-10l-2.1-5l-2.1-3l-4-3.4l-4-2l-7-1.2l-22 0zM423 355.4l-1.5 1.6l-21.3 99l0.8 0.8l3 0.2l2-1.2l4.6-19.8l1.4-1.5l29 0l1.2 0.5l1.1 2l4.3 19l1.4 1l4-0.1l0.9-0.9l0.1-1l-21.9-98l-1.1-1.5l-1-0.3zM484 355.8l-0.6 1.2l0 98l0.6 1.5l1 0.4l3 0.1l1.8-1l0.3-1l0.2-39l1.7-0.8l13-0.1l6-0.8l5.9-2.3l3.9-3l2.7-4l2.1-6l0.8-7l0-13l-1-8l-2.3-6l-3.1-4.4l-4-3l-7-2.1l-23-0.1zM556 355.8l-0.5 1.2l0.2 99l2.3 1l36 0l1.3-1l0.1-2l-0.1-2l-1.3-1.1l-30 0l-1.6-0.9l-0.3-39l0.5-2l1.4-0.5l24 0l1.1-0.5l0.5-3l-0.3-2l-1.3-0.7l-24 0l-1-0.3l-0.8-1l-0.1-38l0.3-1l1.6-0.7l30 0l1.4-1.3l-0.3-4l-2.1-0.6l-35 0zM696 355.5l-0.9 0.5l-0.4 1l0.1 3l1.2 1.2l18 0.2l1 0.4l0.4 1.2l0 92l0.6 1.6l1 0.4l4-0.1l1-0.9l0.2-1l0-92l0.3-1l1.5-0.7l17 0l1-0.3l0.5-1l0.1-3l-0.3-1l-1.3-0.6zM823 355.6l-0.9 1.4l0.2 99l0.7 0.7l3 0.3l2-0.3l0.6-0.7l0.2-35l5.9-10l1.3-0.7l2.1 2.7l24.9 42.4l2 1.6l4-0.1l1-0.9l-0.8-2l-28.8-51l0.5-2l26.4-43l0.7-2l-1-0.5l-4-0.1l-2 1.4l-31 50l-1-0.1l-0.2-1.7l0-48l-0.8-1.4zM901 355.5l-1 1.5l0.2 99l1.8 1l37-0.3l0.8-1.7l-0.1-3l-1.7-1.1l-29 0l-2.1-0.9l-0.3-39l0.4-1.9l2-0.6l24-0.1l1.1-1.4l0.1-2l-0.4-2l-1.8-0.7l-23 0l-2-0.8l-0.4-1.5l0-36l0.3-2l1.1-0.6l31-0.3l0.8-1.1l-0.3-4l-1.5-0.6zM970 355.9l-0.4 1.1l0.2 99l1.2 0.9l4 0l1-0.8l0.2-1.1l0.1-41l0.4-2l1.3-0.5l11 0l7 1.1l3 1.3l3 2.4l2 3l1.6 5.7l0.2 22l0.9 7l0.9 2l1.4 0.9l4 0l1.2-0.9l-1.5-7l-0.3-23l-1.1-6l-1.7-4l-2.2-3l-7.3-5l4.9-3l3.2-3l2.4-4l1.5-5l0.3-19l-2.1-8l-2.3-3.9l-3.1-3.1l-3.9-2.1l-4-1.1l-25-0.4zM1045 355.9l-0.5 1.1l0.2 99l2.3 1l36-0.1l1.4-0.9l0.2-3l-0.6-1.6l-1-0.5l-29 0l-2.5-0.9l-0.3-39l0.5-2l2.3-0.5l23 0l1.4-0.5l0.6-3l-0.4-2l-1.6-0.7l-24-0.1l-1.7-1.2l-0.1-38l0.4-1l1.4-0.6l30-0.1l1.5-1.3l-0.2-4l-2.3-0.6l-35 0zM1261 355.6l-0.9 1.4l0.2 99l1.7 1l37-0.1l1-0.9l0.2-2l-0.2-2l-1-1l-30-0.1l-2-0.9l0-40.6l2-0.9l24-0.1l1-0.4l0.5-1l0-2l-0.3-2l-1.2-0.7l-24 0l-2-1l-0.3-38.3l0.4-1l1.9-0.7l30-0.1l1.1-1.2l-0.1-3.7l-2-0.9zM1330 356l-0.1 100l1.1 0.9l3 0.1l1-0.2l0.9-1.8l0-82l0.3-2l0.8-0.7l30 84.6l1 1.7l1 0.4l5-0.2l0.8-0.8l0.3-2l0-97l-0.4-1l-3.7-0.6l-1.6 0.6l-0.3 1l0 78l-0.1 1.2l-1 1.1l-28.8-80.3l-0.7-1l-1.5-0.6l-6 0zM1406 355.9l-0.5 1.1l0.3 99l2.2 1l20 0l8-1.2l5-2.3l4-3.6l3.4-5.9l1.7-7l0.3-58l-1.1-8l-1.9-5l-2.6-4l-3.8-3.3l-4-2l-7-1.3l-22 0zM187 361.5l17 0l4.7 1.5l3.4 3l1.8 4l0.7 4l0.2 12l-1.5 7l-1.3 2.3l-2 2l-3 1.5l-5 1.1l-14 0.1l-1.7-1l-0.2-36zM334 361.7l16-0.3l6 1.2l3 1.8l2 2.1l3.1 6.5l0.9 8l-0.2 54l-1.7 7l-2.1 3.8l-3 2.7l-4 1.8l-5 0.5l-14 0l-1-0.3l-0.6-1.5l0-85zM491 361.5l14-0.2l4 0.5l5 2.1l3.3 4.1l1.5 4l0.9 6l-0.2 17l-0.8 4l-1.7 4l-2 2.4l-3 1.9l-3 1l-5 0.5l-12 0l-1.7-0.8l-0.2-45zM977 361.6l13-0.2l5 0.4l5 2l3.6 4.2l2 7l-0.1 18l-2.1 6l-1.6 2l-2.8 2.1l-4 1.5l-5 0.6l-12 0.2l-1.2-0.4l-0.5-2l0-39zM1413 361.6l16-0.2l6 1.3l3 1.9l2.1 2.4l2.1 4l1.1 4l0.3 6l-0.1 55l-1.2 5l-2.3 4.4l-3 3l-4 1.8l-5 0.6l-14 0l-1.5-0.8l-0.3-1l0-86zM426 366.7l1-0.6l0.8 1.9l11.6 51l1.8 8l-0.2 1l-1 0.6l-26 0.1l-1.3-0.7l0-3zM767 402.9l-1.5 1.1l-0.1 2l0.1 2l1.5 1.1l23 0l1.7-1.1l0-4l-1.7-1.1zM187 406.5l12-0.2l6 0.5l5.5 2.2l3.9 4l1.5 4l0.7 4l-0.1 16l-0.8 4l-1.7 4l-2 2.4l-2.3 1.6l-2.7 1.1l-6 0.7l-13 0.1l-1.6-0.9l-0.3-41zM1438 743.7l-3 1.1l-4.6 3.2l-3.4 4l-3.5 7l-3.2 15l-2.1 6l-3 5l-8.2 9l-3.6 5l-3.5 6l-3.1 7l-2.5 13l-0.2 14l2.2 19l3.1 15l1.3 9l1.1 11l0 5l-0.9 5l-1.8 5l-5.1 9.7l-8.3 13.3l-3.5 7l-3.4 10l-1.4 10l0.3 10l2.6 17l4.4 17l8.8 25l1.6 9l-0.6 4l-1.4 3l-13.3 17l-4.1 7l-1.8 7l0.3 7l1.7 6l4.1 8.6l4.7 7.4l7.3 8.5l6 4.9l6 3l10 3.6l9 1.8l1 1.2l1.1 48l-1.1 5.6l-2 0.8l-16-1.1l-34 0l-31 2.6l-34 5.7l-24 6.1l-15 4.8l-2-0.5l-0.3-2l1.1-15l0.4-44l0.6-3l2.6-5l1.6-1l18 0.3l9-1.6l7-2.6l4-3l3-3.4l2.3-4.7l1.2-5l-0.5-16l0.4-3l12-22l4.8-15l1-6l0.1-5l-1.1-7l-1.2-4l-11.1-28l-1.4-5l-0.8-6l1.1-12l7.5-38l0.4-9l-0.4-8l-1.9-9l-4.3-11l-2.8-5l-9.7-13l-2.6-4.5l-1.2-3.5l-0.5-4l1.1-15l-0.2-22l-1.3-13l-1.5-9l-2.4-9.4l-2.1-5.6l-2.6-5l-5.3-6.6l-7-5.6l-7-3.3l-9-1.5l-8 1.5l-6 2.8l-6.5 5.7l-4.3 7l-3.8 11l-1.4 10.3l-0.7 19.7l-0.9 8l-1.1 4l-2.3 4l-7 5.9l-4.5 5.1l-1.8 3l-1.9 5l-1 5l0 10l2.6 17l6.7 23l1.5 7l0.2 5l-1.4 9l-2.4 5.8l-4 4.6l-16 12.3l-6.9 7.3l-4.4 8l-2.9 9l-0.7 6l0.2 4l1.4 7l2 6l5.3 9.7l10.5 15.3l-0.5 1.1l-10 4.9l-6.1 5l-3.9 5.2l-1.4 2.8l-1.7 6l-0.5 4l1.3 8l3.1 7l6.2 8.6l7.1 6.4l8.9 5.3l4 1.8l26 8.9l4.9 3l3.3 4l0.6 2l-0.4 6l0.8 47l-1.5 26l-1.7 1.4l-30 12.4l-27.6 13.2l-16.4 8.8l-22 13.2l-23 15.5l-22.5 16.5l-38.1 30l-23.4 19.5l-18.5 16.5l-18.5 18l-19 20.4l-19.5 22.6l-52.5 66.2l-37.5 50.8l-22.5 33l-11 17.6l-17 27.8l-19.7 34.6l-2.3 3.3l-38 68.1l-16.7 32.6l-12.6 27l-16.4 39l-16.5 43l-24.3 66l-19.7 51l-2.9 9l-7.3 18l-21.9 58l-24 68l-1.7 0.6l-11 0.7l-101 3.6l-80 1.3l-46-0.2l-53-1l-83-3.7l-30-2.1l-39-3.8l-55-7l-26.9-4.4l-33.1-6.8l-33-9l-10-3.5l-1.3 0.3l-0.5 2l0 15l0.5 2l2.3 1.2l16.1 4.8l22.9 5.8l22 4.8l33 5.9l34 4.7l31 3.5l39 3.5l54 3.5l65 2.4l85 0.7l115-1.6l77.3-3.2l1 1l0 1l-1.3 5l-3.2 9l-3.8 13.8l-6.5 20.2l-3 12l-12.4 41l-15.7 49l-16.4 45.6l-22.9 54.4l0.2 1l1.7 0.3l16 0l1.7-0.3l0.9-1l7.7-17l11-27l11.8-32l10.6-31l8.4-28l7-21l25.9-87.8l3.1-8.2l1.9-1.3l105-6.2l77-5.9l79-7l93-9.4l113-12.9l74-9.5l94-12.7l91-13.9l13-1.5l1 0.3l-0.6 1l-4 4l-34.6 30l-39.2 36l-31.1 27l-57.5 47.7l-22 19.5l-1.7 0.8l-0.1 2l3.8 17l1 2.4l41-35.5l57.6-47.9l25-22l38.4-35.3l32-27.9l30-25.1l15-3l47-7.5l75-12.9l84-15.3l70-13.9l14-2.4l113-23.3l96-21.3l12-3.1l18-3.5l1.4 1.5l12.4 42l3.4 10l2.2 9l25.7 86l22 79l11 42l15.1 62l12.8 54l13 59l0.7 1l1.3 0.3l17.3-0.3l0.3-1l-0.5-3l-15.7-69l-29.1-120l-16.2-61l-15.7-55l-41.5-139l-0.1-2l1.2-0.9l5-1.5l40-9.1l9-2.7l16.8-3.8l26.2-7.1l35-8.6l49-13.5l15-3.7l41-11.8l14-3.4l25-9.1l12-3.7l37-12.9l10-2.9l39-13.6l9-2.6l8-3.2l9-2.5l8.8-3.4l24.2-7.8l1.9-1.2l0.3-1l-0.1-18l-1.1-0.4l-7 2.2l-20 7.2l-27 8.6l-7 2.8l-32 10.8l-9 2.6l-8.1 3.2l-9.9 2.8l-39 13.7l-49.1 15.5l-107.9 29.3l-62 15.8l-62 14.6l-1.3-0.7l-0.9-2l-15.2-51l-9.6-34.5l-6.7-20.5l-9-31l-6.6-19l-3.7-12.6l-3.2-8.4l-2.5-9l-3.5-9l-13.8-40.6l-8.3-21.4l-0.2-2l5.9-5l19.6-13.4l3-2.7l29-20l3.5-2.9l22.5-15.5l35-22.6l38-22.7l6-3l32.5-19.2l38.5-21.4l32-16.7l49-23.2l63-27.9l38-16l42-15.9l37-12.2l29-8.7l2-1.2l0.3-16.8l-0.3-1.9l-1-0.3l-58 18l-29 10.2l-31 12l-2 0.4l-1-1.4l3-40.6l0.8-26.4l1.2-1l1-0.1l15 0.6l8-0.9l8-3.1l7-3.8l7.4-6.7l4-6l2.8-7l1.4-9l-0.2-5l-1.1-6l-8.9-29l-2.5-11l-1.1-9l0-24l3.2-37l0.6-15l0-11l-0.8-13l-2.7-13l-3.1-9.5l-6-12.4l-7.2-11.1l-1.6-4l0.1-49l-0.5-18l-2.5-17l-3.6-14l-2.1-6l-4.8-10l-4.8-6l-6-4l-5-1.8l-3-0.3l-7 1.3l-6.9 3.8l-7.1 7.6l-5 7.7l-7.1 15.7l-1.9 7.3l-1.2 8.7l0.1 12l4.4 33l0.1 6l-0.9 5l-1.6 5l-2.7 5l-4.2 6.8l-13.2 18.2l-9.1 15l-5.8 13l-1.3 4l-1.2 7l-0.3 10l1.6 12l4.1 13l9.6 25l2.2 8l0.6 5l-0.5 4l-2.5 7l-9.8 18l-3.8 9l-2 8l-0.9 8l0.1 6l0.8 7l2 7l1.8 4l5.5 9l7.6 8l5.5 4.3l11 6.9l7 3.2l10 2.6l9 0.5l1.2 0.5l0.5 1l0 35l-0.7 18l-2 27.2l-1 1l-9 4l-59 25.8l-47 21.8l-43 22l-32 17.7l-66 38.2l-45 28l-16 10.8l-3 2.5l-13.8 9l-3.2 2.7l-19 13l-3.9 3.3l-22.6 16l-8.5 5.7l-1 0l-2.1-3.7l-10.4-26l-15.2-35l-28.2-59l-22.9-43l-6.7-11l-9.7-18l-21.8-36.4l-22-34.1l-16.5-23.5l-16.5-21.7l-3.1-3.3l-2.6-4l-17.3-19.8l-12-12.7l-16-15.2l-16-13.6l-16-12l-25-16.7l-0.8-1l0.2-21l1-20l1.6-0.4l6 0.3l21-3.2l7-1.6l5.9-3.1l5.8-6l15.7-24l4.9-9l2-5l2.5-12l-0.5-7l-2.1-8l-11.2-23l-3.2-9l-1.1-7l1.1-11l4-18l3.5-11l6-22l1.4-12l-0.6-12l-1.8-7l-5.2-11l-6.1-7.2l-15-11.2l-3.2-3.6l-1.6-3l-0.8-10l1.5-51l-0.5-18l-1.1-7l-1.8-6l-5.1-10l-4.4-6.2l-5.5-5.8l-5.5-4l-6-2.1l-5-0.4l-5 1l-4 1.8l-6 5.6l-4.2 7.1l-3 9l-2.8 12l-3.3 20l-1.3 12l-0.4 28l2.4 33l-0.1 6l-1.1 6l-3 7l-3.6 6l-12.6 16.3l-5.6 8.7l-2.8 6l-3 12l-0.5 6l0.3 6l0.7 6l2.1 10l3.5 12l2.6 6l4.6 14l1 6l-1.2 7l-2.7 8l-10 19.6l-4.6 12.4l-1.5 10l0.4 11l1.3 5l4.2 9l5.4 8l5.8 5.7l7 4.8l9 4.6l10 2.7l1 0.8l0.4 2.4l-0.5 23l-0.9 0.5l-1-0.3l-22.6-12.2l-15.4-7.3l-19-8l-20-7.1l-12-3.3l-14-3.6l-19-3.6l-1.9-1.1l0.3-55l0.4-1l1.2-0.5l8 0.2l6-1.1l13-5l6-4.1l5.6-7.5l2.1-7l-0.2-9l-2.3-10l-4-12l-0.3-4l2.7-7l12.4-15.2l6.3-9.8l2.8-9l0.8-7l-0.6-5l-2.1-8l-6.2-11.2l-7.2-9.8l-1.9-4l-0.8-5l0.7-7l2-7l7.2-15.1l4.1-10.9l1.4-5l0.7-9l-0.8-8l-1.2-4l-5.2-9.7l-5.7-5.3l-13.3-7.8l-4-3.2l-2.3-3l-1.8-6l-0.4-7l0.4-12l2.2-25l1.2-23l-1.3-23l-1.7-12l-4.1-13l-2.2-4l-4-5.1l-6-4.4l-3.3-1.5l-4.7-0.7zM1385 1198l31 1l19 1.9l15 2.5l27 6.4l18 5.9l21 8.4l16 7.4l18 9.4l22 12.7l16 10.2l17 12l16 12.4l22 20l22.1 23.8l16.9 20.5l12 16.1l26.5 38.4l28.5 46.2l15.3 26.8l10.6 20l2.1 3l16.3 31l16.8 34l28 63l2.4 7l7.7 18l1.3 4l-0.3 1l-39.2 28.2l-3 1.6l-29 22l-131 106.4l-2.7 2.8l-42.3 35.6l-3 3.2l-3 2l-7.9 7.2l-91.1 76.1l-3 3.3l-14 12l-47 43.4l-38 33.2l-5 3.2l-9 1.9l-19 2.5l-19.4 3.4l-110.6 16.3l-115 15.3l-108 12.8l-90 9.6l-73 6.9l-68 5.6l-82 5.9l-60 3.7l-8 0.3l-1.5-0.4l-0.3-2l2.5-8l16.1-46l12.5-32l2.6-8l3.5-8l2.5-8l7.6-19l3.4-10l3.5-8l2.6-8l3.4-8l2.6-8l12.5-32l25.5-69l21.8-55l12.1-27l10.9-23l7.3-13l9.6-19l38.3-68l22.3-38l28.4-45l31.8-45l23.4-31l28.1-35.9l22-27l22.6-26.1l17.2-18l21.9-21l21.3-18.1l32-25.9l29-22.1l33.2-22.9l25.8-15.3l32-16l30-12.9l22-8.1l23-7.1l31-7l17-2.6l22-2.1zM1856 1679.9l1 0.4l2.4 4.7l10.6 29l29.1 88l38.4 129l0.4 2l-0.9 1.6l-10 2.8l-101 22.7l-136 28l-85 16.4l-15 2.3l-75 13.9l-83 13.9l-2 0l-0.8-0.6l3.7-4l22.1-19.5l3-3.3l4.1-3.2l44.9-41.4l45.5-38.6l24.5-19.8l2-2.3l4-2.7l3-3.1l35.9-30.1l2.1-2.3l31-25.8l2.7-2.9l88.3-72.2l3-1.8l10-8.8l5-3.5l10-8.6l3-1.9l19-15.3l34-25.2zM1165 2237.2l-4.2 3.8l-6 27l0.2 2.8l15.4-12.8l-4.4-19.6zM1153 2247.8l-32.9 28.2l-19.1 15.4l-1.5 0.6l-0.7 2l0.5 2l1.7 0.6l23 0.4l23-18.6l1.3-2.4l5.9-27l-0.2-1.3zM1091 2299l-61.2 47l-33.8 28.4l-29.7 23.6l-0.3 1l27 0.3l3-0.7l63-51.6l57.8-44l0.8-1l-1.6-0.6l-21-0.1l-1-0.5l-1-2.8z"></path>
<path class="color-2" fill-rule="evenodd" style="fill:var(--color-2,#fefcfb)" d="M2106 66.7l-1.7 2.3l0 2l0.7 1.1l4 1.5l2-0.2l1-0.7l1-1.7l0-1l-1.8-3l-2.2-0.8zM2115 95.8l-2.1 2.2l-0.2 2l2.3 1.9l2 0.1l2.6-2l0.6-2l-1.1-2l-1.1-0.6zM1993 110.9l-3 1.1l-1.6 2l0.1 2l1.5 1.6l4 0.2l2.1-1.8l0.4-2l-0.5-1.4l-1-1.2zM2098 110.9l-1.5 2.1l-0.2 6l0.8 2l2.9 0.7l2-1.7l1.6-6l-0.1-2l-0.6-1l-1.9-0.8zM2126 123l-3.1 2l-2.2 3l0.1 2l1.2 1.4l2 0.4l2-0.5l4-4.3l0.2-2l-1.2-1.7l-1-0.6zM2004 129.9l-1.8 2.1l-0.1 3l1.6 2l2.3 0.4l2-1.5l0.8-2.9l-1.8-2.9l-1-0.5zM2092 137.9l-1.6 2.1l0.2 6l0.7 2l1.1 1l2.6 0.4l1-0.6l0.9-1.8l-0.1-7l-1.8-2.2l-1-0.3zM1870 141.8l-2 1.2l-0.4 3l1.8 5l2.6 1.5l1.3-0.5l1.4-2l0-4l-1.7-3.2l-2-1zM1892 144.7l-2.8 1.3l-2.3 2l-0.4 3l1.5 1.5l3 0.1l6-2.2l1.7-1.4l0.5-2l-1.7-2l-2.5-0.6zM2011 153l-1.9 2l-0.1 3l2 2.4l2 0l2.2-2.4l0-3l-1.2-1.6l-2-0.6zM2131 155.6l-1.7 1.4l-0.8 2l0.3 2l1.2 1.6l2 0.8l2 0.1l3-0.7l1.3-0.8l1-2l-1.3-2.5l-5-2zM2103 156.8l-2.3 2.2l0.1 3l3.2 2.6l3 0l1-0.7l1.4-2.9l-0.2-3l-2.2-1.6zM2249 162.7l-2.5 3.3l0.1 3l0.9 2l1.5 1.4l3 0.3l1.1-0.7l0.9-2l-0.4-5l-1.6-2.3zM2030 164.5l-3.5 2.5l-0.8 2l0.4 2l1.9 1.6l2-0.1l2-0.9l1.5-1.6l1-2l-0.1-2l-0.7-1l-1.7-0.8zM2081 165l-2 1l-0.6 1l-0.6 3l1.5 3l2.7 1.4l2-0.9l1.1-2.5l-1.1-5l-1-0.8zM1883 169.9l-3 1.1l-1.4 3l0.4 2l1 1.6l3 1.5l2.4-1.1l2-3l0.6-2l-1-2.1l-2-1zM1863 172l-1.3 1l-0.4 2l1.2 7l1.5 2.3l3 0.3l1-0.7l0.8-1.9l-0.6-6l-0.8-2l-1.4-1.7l-1-0.5zM2128 172.9l-1.5 1.1l-0.9 2l0.2 2l1.3 2l2.9 1l2-0.5l3-1.7l0.6-0.8l0-2l-1.6-2l-3-1.2zM2047 176.6l-1.9 2.4l0.3 3l2.6 1.7l2 0.2l2-0.9l0.6-1l0.1-2l-1.2-3l-1.5-0.8zM2008 177.8l-2.3 1.2l-0.5 3l1.8 2.3l3 0.2l1.5-1.5l0.2-2l-1-2zM2138 178.6l-1.4 1.4l-0.1 2l0.4 1l2.1 1.5l2.7-0.5l1.1-2l-0.4-2l-2.4-1.7zM2173 180.7l-2 1.3l-1.7 2l-0.4 2l1 2l2.1 0.8l6-1.7l1-0.8l0.6-2.3l-0.9-2l-2.7-1.5zM2118 181.4l-1.5 1.6l0.2 2l1.3 1.4l1 0.2l2-0.5l1-2.1l-0.6-2l-1.4-0.8zM2101 182.6l-2.1 1.4l-0.6 1l-0.1 2l1.8 2l3 0.2l2-1.2l0.6-1l0-3l-1.6-1.5zM1977 183.8l-2.2 2.2l-1.8 4l0.3 2l0.7 0.9l2 0.8l2-0.4l1.4-1.3l1.8-5l-1.2-2.5l-2-0.9zM2084 184l-1.2 2l1.3 4l2.9 1.7l2.8-0.7l1.1-2l-1.1-3l-2.8-2.3zM2237 184.5l-6.4 5.5l-0.6 2l1 2.2l2 0.6l2-0.5l5.1-4.3l0.9-2l-0.2-2l-1.8-1.6zM1900 185.9l-1.5 2.1l-0.1 1l1.6 2.3l3 0.2l2.5-1.5l0.5-2l-1-2l-3-0.9zM1987 188.6l-2 1.3l-0.9 2.1l0 2l0.9 1.7l2 1.3l2 0.3l4-1.9l1-2.4l-1-1.9l-4-2.4zM2035 189l-2 1.3l-1.1 2.7l1.1 3.9l2 1.9l2 0.8l4-0.6l3 0.6l3-1.2l1.2-1.4l0.2-2l-0.4-1l-3-3.2l-2-0.7l-4 1.5l-2-2.2zM2150 188.8l-0.6 1.2l0.1 3l2.5 3.5l2 1.1l2 0.3l2-0.5l1.6-1.4l1.1-3l-1-2l-3.7-1.1l-3-1.7zM1867 190.5l-1.5 1.5l0 2l1.6 3l1.9 1.8l5 2.8l5 1.8l3 0.1l2.4-1.5l0.4-2l-1.8-2.3l-8-3.2l-5-3.9zM1924 192.5l-1.7 1.5l-1.3 2.6l-1 0.2l-3-2.4l-2.8 0.6l-1.2 1.4l-0.5 1.6l0.8 2l1.7 1.5l2 0.5l2-0.7l2-2.2l3 1.3l3-0.8l1.5-2.6l-0.5-3l-2-1.6zM2195 197.9l-2 1l-0.7 1.1l0.1 2l1.7 2l1.9 0.6l7 0.2l2.4-0.8l0.5-3l-1.9-2.2l-3-0.7zM2003 199l-2.4 1l-1.2 2l0.1 2l1.5 1.7l2 0.5l2-0.3l4.3-2.9l0.7-2l-1-2.2l-3-0.6zM2072 199.8l-2.1 2.2l0.1 4l-1 0.7l-13 3.6l-15 5.5l-14 6.3l-2-0.1l-0.6-2l-1.5-2l-0.9-0.5l-1.8 0.5l-1.2 1.3l-0.5 1.7l2.2 4l-0.7 0.9l-12 7l-16.8 12.1l-17.6 16l-10.6 11.8l-7.2 9.2l-9.8 15l-5.4 10l-6.3 14l-5.7 17l-3.7 18l-1.3 9l-0.4 15l0.4 12l2.9 16l2.1 9l5.7 16l6.3 13l10.4 15.7l11.4 13.3l6.5 6l13.1 10.3l9 5.9l11 6.1l15 6.1l13 4.2l9 1.9l19 3l17 0.8l16-0.9l26-4l23-7.1l10-3.9l13-6.2l9.2-5.2l14.8-9.7l16.6-13.3l10.4-10l7-7.7l3.4-4.3l1.3-5l-0.6-3l-2.6-4l-1.5-1.4l-4-0.8l-3 0.7l-12 5.6l-17 6.3l-21 4.8l-13 2l-10 0.4l-14-0.3l-8-1.1l-20.5-5.2l-8.7-4l-10.3-6l-11.9-10l-5.1-6l-4.7-7l-5.8-11l-4.5-16l-1.5-10l-0.1-14l1.5-13l4.6-19.7l5-12.9l4.8-10.4l6.2-11.3l7-10.7l9.9-13l12.6-14l8.5-8.2l13-10.9l10.5-7.9l17.5-11l1.5-2l0.9-3l-0.7-4l-2.8-3l-2.9-0.9l-4-0.1l-4-2.3l-3-0.9l-24-0.9l-29 2.7l-1.1-0.6l-0.6-3l-1.3-1.3l-2-0.3zM1989 212.9l-4 1.8l-1.1 3.3l1.3 3l2.8 1.9l2 0.5l2.6-1.4l0.4-2l-1.7-6zM1921 213.9l-3 1.7l-1.6 3.4l-0.2 3l1.8 1.8l2-0.1l1.3-0.7l2.9-5l0.2-2l-0.6-1l-1.8-1.1zM1959 213.7l-2.3 1.3l-0.6 3l0.9 2.3l3 0.6l1-0.4l1.1-1.5l0.4-3l-1.5-2.1zM2223 215.6l-1.7 2.4l0.1 3l1.6 1.6l3 0l2.8-2.6l0.3-3l-2.1-1.8zM2164 223.6l-2.2 1.4l-1 2l0 1l1.6 4l2.6 1.6l1.6-0.6l1.8-2l0.5-4l-0.7-2l-1.2-1.2zM2178 223.7l-1.7 2.3l0.2 7l1.5 3.3l3 0.4l1.2-0.7l0.5-1l-0.1-9l-1.6-2.1l-1-0.4zM1973 224.8l-1.9 2.2l-0.3 2l1.2 2.2l2 0.4l3.1-1.6l1.5-2l0.1-1l-1.7-2.3l-2-0.4zM1913 235.4l-2.7 2.6l-0.4 2l0.7 2l2.4 1l2-0.6l1-0.8l1.7-3.6l-0.7-1.9l-1-0.8zM2134 242.4l-1.6 1.6l-0.2 1l0.4 2l1.1 1l4.3 0.9l3-0.9l0.6-3l-1.5-2l-2.1-0.8zM1959 243.6l-2 2l-0.7 3.4l0.7 2l3 0.8l2.6-1.8l0.8-2l0-2l-1.4-2.2l-1-0.5zM1916 257.8l-2.3 2.2l1.8 6l1.5 1.4l3-0.3l1.4-1.1l0.3-1l-0.1-4l-2.6-2.5zM1932 260.8l-0.7 1.2l0 2l1.7 2.3l5 1.9l1 0l1.9-1.2l0.5-1l-0.2-2l-2.2-2.4l-4-1.5zM2115 261.8l-3 1.9l-1.7 2.3l0 2l1.7 1.9l3-0.3l5.1-3.6l0.2-2l-1.3-1.7l-2-0.8zM1909 286.8l-2 0.7l-1.5 1.5l-0.1 2l0.6 1.1l3 1.3l5-1.4l1.2-2l-0.5-2l-2.7-1.4zM1921 289.9l-2 1.2l-0.9 1.9l0.7 2l1.2 0.8l2 0.5l4-0.9l2.2-2.4l-0.2-2l-1-1.3l-3-0.5zM1909 300l-2.3 2l-0.7 8l1 2l2 0.5l3-1.6l1-1.9l0.3-3l-0.4-3l-0.9-1.8l-1-0.9zM1925 303.8l-2 1.2l-0.4 1l0.6 3l0.8 1.3l2 1l3-0.2l1.7-2.1l-0.3-2l-2.4-2.5zM1871 312l-3 0.2l-1 0.4l-1 1.4l-0.2 1l0.5 2l2.7 2l2 0.1l2-0.6l2.4-2.5l0-2l-0.8-1l-1.6-0.8zM1789 315.9l-1.8 1.1l-1.6 2l-1.1 2l-0.3 2l0.3 3l1.5 3l1.1 1l1.9 0.6l1.3-0.6l1.2-2l-0.3-5l1.4-4l-0.7-2zM1882 316.9l-1 1.2l-0.2 1.9l3.1 4l3.1 1.3l2-1l0.7-1.3l-0.1-2l-1.6-2.5l-3-2l-2-0.1zM1832 321.9l-8 1.7l-4 2.2l-1.7 2.2l0.2 3l1.5 1.2l2 0.2l7.8-3.4l6.2-0.3l2-0.8l1.3-1.9l-1-3l-2.4-1zM1805 335.8l-2 0.8l-1.3 1.4l-0.4 3l0.7 1.1l5 2.6l3-0.4l1.3-2.3l-0.9-4l-2.4-1.7zM1874 338.4l-1.4 1.6l0.2 3l2.2 2.1l3 0.1l1.5-2.2l-0.7-3l-1.8-1.7zM1855 341l-3.7 2l-2.8 4l-1 3l0.5 2l1 1.1l2 0.2l2-1.2l4.4-6.1l0.5-3l-0.9-1.4zM1828 349.5l-1 0.7l-0.7 1.8l0.2 2l0.7 1l1.8 1.4l2 0.5l2 0l1.7-0.9l1-2l-1.3-3l-3.4-1.5zM1896 350l-1.6 3l0.6 3.2l1 1.3l2 1.1l2 0.2l1-0.5l1.3-2.3l-1.6-5l-1.7-1.5zM1876 354l-2 0.5l-1.1 1.5l0.1 2l1 1.3l1 0.4l2.7-0.7l0.8-2l-0.5-2zM1854 366.9l-1.6 2.1l0.2 2l0.9 1l3.5 1.4l2-0.5l1.3-0.9l0.5-2l-0.8-2.4l-3-1.2zM1893 372.5l-1.8 1.5l-0.5 2l0.3 1l2 1.7l2 0.4l3-0.5l2.4-1.6l0.3-2l-0.7-2l-2-0.8zM1902 387.6l-1.5 2.4l0.5 2.1l2 1.5l3-0.3l1.3-2.3l-0.5-2l-1.8-1.5zM1875 394.9l-1.4 1.1l-0.4 1l-0.1 2l0.9 2.2l2 1.3l2 0.2l4-1.8l0.5-0.9l0-2l-1.5-1.9l-3-1.6zM1911 417.9l-1.3 1.1l-0.8 2l2 3l3.1 1l3-0.9l0.7-3.1l-1.1-2l-2.6-1.3zM2247 427.6l-1 1.4l-0.2 2l5.1 8l1.7 5l2.4 2.2l2-0.4l1.6-1.8l0.3-2l-2.8-8l-5.4-6l-1.7-0.8zM1901 433.7l-1.6 1.3l-0.5 3l2.1 4.6l1 0.7l2 0.1l1-0.4l1.1-2l-0.5-4l-1.6-2.4zM1910 456.8l-1.7 1.2l-0.9 2l0.6 2l1 0.9l5 1.1l3 3.4l2-0.1l1.6-1.3l1-3l-1.6-3.4l-5-2.9zM2233 459.8l-4 1.9l-4.2 3.3l-0.6 2l0 2l1.8 2.4l2 0.5l2-0.4l3-4.3l3.4-3.2l-0.1-3l-1.3-0.9zM1930 469.9l-4 1.4l-1.5 1.7l-0.8 2l0.6 3l2.7 2.2l1 0.1l2-1.1l2.9-5.2l0.2-2l-0.5-1zM1957 475.7l-2.3 1.3l-1.4 3l0.7 2.6l2 1.5l3-1.2l1.4-1.9l0.4-2l-0.8-2.5zM1913 479.4l-1 0.7l-0.8 1.9l-0.6 7l1.4 2.4l3 0.3l1.5-0.7l1.1-2l-0.1-6l-1.5-3.1l-1-0.6zM2213 486.8l-4 2.3l-3-1l-2.9 0.9l-1 3l0.8 3l1.3 1l1.8 0.2l2-1.1l2-2.2l5 2l2 0l2-0.8l1.1-2.1l-1-2l-4.1-2.7zM1929 493.6l-1.5 1.4l-0.7 2l0 2l1.2 1.8l2 1.3l4 1.4l3-1.1l0.9-2.4l-0.7-2l-3.2-1.9l-2-2.2zM1876 502l-2.3 2l1.2 4l4.2 6l2.9 1.2l2-0.6l1.3-2.6l-0.7-2l-5.6-7.3l-1-0.7zM1862 503l-3.9 2l-2.1 2.2l-0.9 2.8l0.9 2.2l3 0.5l4-2.4l3 1.2l2 0.1l2.1-1.6l0.3-3l-1.9-3l-3.5-1.6zM1990 502.9l-1.5 1.1l-1 2l0.4 2l1.1 1.2l7 0l2.5-1.2l0.6-2l-1.1-2.4l-4-1.4zM1951 505.9l-2.4 1.1l-1.3 2l0.7 2l2 1.4l1 0.1l2-0.8l1.3-2.7l-1.3-2.2zM1968 507.6l-2.1 2.4l-2.8 5l0.9 2.7l2 1l2-0.5l2.9-3.2l1.3-2l0.9-3l-1.1-2.5l-2-0.5zM2172 512.8l-2.5 2.2l-0.5 3l0.6 2l1.4 1.7l1 0.6l2 0.1l1-0.5l1.3-1.9l-0.3-5l-1.6-2zM1929 513.6l-3 1.4l-3 0.2l-2 0.9l-1.6 1.9l0.2 3l1.4 1.1l2 0.2l5-1l3.3-1.3l2-3l-0.1-2l-2.2-1.7zM2270 514.9l-0.8 1.1l0 2l1.7 2l2.1 0.3l2.6-1.3l0.6-2l-1.2-2.4l-3-0.5zM2196 516.7l-2 2.3l-0.1 2l0.6 1l4.5 4.5l2 0.3l1.9-0.8l0.6-1l0.1-2l-2-4l-2.6-2.2zM2217 516.7l-1.5 2.3l-0.1 4l1 3l2.6 3.4l4 2l5 0.5l4-0.4l3.4-2.5l0.3-2l-1.5-2l-2.2-0.5l-5 0.7l-3-1l-1.9-2.2l-0.5-3l-1.2-2l-1.4-0.7zM1892 518.6l-1.8 1.4l-0.3 2l1.1 1.6l2 1l6 0.7l4-0.6l2-0.9l1-1.8l-0.4-2l-1.6-1.2zM1991 520.8l-1.9 1.2l-0.5 1l0.4 2.4l2 1.4l2 0.2l2-0.5l1.3-1.5l0.1-1l-0.8-2l-1.6-1zM2263 522.6l-1.5 2.4l0.2 2l1.3 2.1l7 4.4l3 0.3l2-0.9l1.1-2.9l-1.1-3.7l-2-0.9l-3.8-0.4l-4.2-2.6zM2033 525l-2 0.6l-1.8 1.4l-0.9 2l-0.1 2l1.8 3.2l3 1.2l2.6-1.4l0.8-2l-0.4-5l-1-1.3zM2152 525.7l-2 1.3l-0.5 1l0.5 3l3 1.4l3-0.8l1.3-2.6l-0.4-2l-1.9-1.4zM1865 527.6l-1 0.5l-1.5 1.9l-1.2 4l0.3 3l2.4 1.2l2-0.4l1-0.8l1.9-6l-0.5-2l-1-1zM2110 527.7l-4 2l-1.5 2.3l0.5 2.7l2 1.8l4-0.1l3.7-5.4l-0.3-2l-0.9-1l-1.5-0.6zM1842 531.9l-2 1.7l-0.7 3.4l0.6 2l0.9 1l2.2 0.5l1-0.5l1.5-2l0.9-2l0-2l-1.7-2zM2254 533.9l-5 2.7l-7 2.3l-1.2 2.1l0.5 2l1.7 1.3l3 0.2l8-2.8l2.5-2.7l0.8-2l-1.3-2.4zM2012 536.6l-7 2.4l-1.1 3l1.1 1.9l2 0.7l3-0.1l6-2.5l1.4-3l-0.8-2l-1.6-0.8zM2050 537.8l-1.3 1.2l-0.5 3l0.4 2l1.4 1.6l4 2l3 0.1l2-0.9l1-2.8l-1-2l-3-1.2l-3-3l-2-0.3zM513 538.7l-6.5 8.3l-0.2 1l0.7 0.6l2.5-0.6l7.1-8l0.3-1l-0.9-0.5zM326 539.9l0 7.8l1 0.8l2-0.1l1-1.4l-0.2-7l-1.8-0.8zM338 539.4l-1.1 1.6l0.1 6l0.5 1l1.5 0.6l1.4-0.6l0.4-1l0.1-6l-0.9-1.6zM2163 539.6l-4.1 3.4l-1.3 3l0.5 2l0.8 1l3.1 1.5l2-0.4l1-0.8l2.6-6.3l-0.7-3l-1.9-0.9zM2213 540.9l-1.4 1.1l-0.7 2l1.1 3.2l5 3.1l2 0.2l2-1l0.7-1.5l-0.7-2.6l-5-4.6zM1855 545.7l-2 1.4l-0.9 2.9l0.5 4l2.4 1.7l2-0.6l0.9-1.1l0.6-3l-1.2-4l-1.3-1.1zM2040 549.6l-1.5 2.4l0.1 2l0.6 1l4.8 2.8l3-0.7l1-2.1l-1-2.4l-4-3.4zM2073 549.3l-1.5 1.7l0 2l0.5 0.9l5 7.3l2 1.2l2-0.4l1-1l0.6-2l-1.2-4l-4.4-5.4l-2-0.5zM198 554l-1.6 1l-2.4 4l-2.8 3l-4.2 2.2l-3 0.5l-0.7 2.3l0.7 1.7l1 0.1l5-1.7l5-3.4l0.8 1.3l0 65l0.4 2l1.8 0.7l2-0.4l0.6-2.3l0-74l-0.6-1.7zM229 553.9l-1 0.2l-1 0.9l0 2l1 1.2l25 0.2l2 0.5l0.3 1.1l-21 70l0 2l0.7 0.6l2 0.1l1.5-0.7l0.9-2l20.9-70l0.5-4l-0.8-1.8l-1-0.3zM328 553.9l-4 1.7l-3 2.5l-2.6 3.9l-1.5 5l-0.5 6l0.1 44l0.7 4l1.5 4l2 3l2.3 2.1l2 1.3l4 1.4l9 0l4-1.5l4-2.9l2.4-3.4l2-6l0.4-5l-0.4-46l-0.9-4l-1.4-3l-2.1-2.8l-3-2.6l-3-1.4l-4-0.9l-5 0zM376 554l-1 0.3l-0.8 1.7l0.4 76l2.4 0.7l1-0.3l0.6-1.4l0.4-65.6l1 0.3l1.3 3.3l21.9 62l0.8 1.3l1 0.3l3 0l0.8-0.6l0.4-2l-0.2-75l-1-0.9l-2 0l-1 0.9l-0.1 1l0 58l-0.9 4l-2-4.1l-20.9-58.9l-1.1-0.9zM435 554l-1 0.2l-0.9 1.8l0.3 76l0.6 0.5l2 0.2l1-0.3l0.8-1.4l0-26l2-4l3.2-4.4l1 0.1l1.1 1.3l19.4 33l1.5 1.5l3 0l0.5-1.5l-1.1-2l-21.5-38l0.5-2l20.6-34l-1-1l-2 0l-2 1.4l-24 38.4l-1-0.1l-0.2-1.7l0-36l-0.8-1.8zM496 554l-2 0.6l-0.5 1.4l0 74l0.4 2l2.1 0.7l27-0.1l1.1-0.6l0.4-2l-0.3-1l-1.2-0.7l-23-0.1l-1.4-1.2l0.1-31l1.3-1l18 0l1-0.2l0.8-1.8l-0.4-2l-1.4-0.6l-17 0l-2-0.4l-0.5-2l0-27l0.4-2l1.1-0.6l23-0.1l1.4-1.3l-0.1-2l-2.3-1zM550 554l-2 1l-0.2 1l0 74l0.4 2l0.8 0.5l2 0l0.9-1.5l0-64l0.1-1.4l1-0.7l23.6 66.1l1.4 1.5l4-0.1l0.8-2.4l-0.2-75l-0.6-0.8l-2.2-0.2l-1.5 1l-0.1 1l0 58l-0.2 3.1l-1 0.4l-22.5-62.5l-1.5-1zM606 554l-2 1l0 2l1 1.2l13 0.2l1 0.3l0.6 1.3l0 71l0.4 1.1l1 0.6l2 0l1.4-0.7l0.3-2l0-70l0.4-1l0.9-0.5l14-0.3l0.7-1.2l-0.1-2l-1.6-1zM664 554l-1 0.3l-0.8 1.7l0.4 76l1.4 0.7l28-0.2l0.6-0.5l0.4-2l-1-1.6l-23-0.2l-1.1-0.2l-0.8-1l0.2-31l1.7-1l18 0l1-0.3l0.8-1.7l-0.4-2l-1.4-0.5l-17-0.1l-2.3-0.4l-0.7-2l0-27l0.5-2l1.5-0.6l23-0.2l0.9-1.2l-0.1-2l-1.8-1zM728 553.8l-3 1l-3 1.8l-3.4 4.4l-2.2 7l0.1 9l2.4 6l3.8 5l15.3 12.2l4.2 4.8l2.1 5l0.4 4l-0.4 5l-2 5l-3.3 3.2l-2 1l-3 0.3l-6-0.4l-3.4-2.1l-2.2-3l-1.5-4l-0.6-8l-2.3-0.9l-2 0.9l-0.2 1l0.6 8l1.2 4l1.4 2.6l2 2.4l3 2.2l4 1.6l9 0l6-2.5l2.5-2.3l1.9-3l1.4-4l0.8-5l0-4l-0.7-4l-1.6-4l-3.6-5l-3.7-3.5l-11-8.2l-4.2-4.3l-2-3l-1.4-4l-0.2-7l1.4-5l2.4-3.6l4.3-2.4l4.7-0.4l4.9 1.4l3.3 3l1.9 4l0.9 7l1 1l2 0.1l1-0.6l0.5-1.5l-0.1-2l-0.5-4l-1.3-4l-1.8-3l-2.8-2.9l-3-1.7l-4-1l-4-0.2zM867 553.9l-2 0.8l-2.6 4.3l-2.8 3l-2.6 1.5l-4 1.1l-1.1 1.4l0.2 2l0.9 0.7l1-0.1l4-1.3l5-3.5l1 0.2l0.3 67l0.7 1.4l1 0.3l2-0.2l0.6-0.5l0.4-2l0-74l-1-1.9zM907 554l-5 2.5l-2.5 2.5l-1.8 3l-1.3 4l-0.8 5l-0.1 5l0.5 1.5l2 0.5l1.9-1l1.1-10.8l2.8-5.2l2.2-1.8l3-1.3l4-0.3l3 0.4l3 1.3l2 1.6l1.3 2.1l1.9 6l-0.1 9l-1.3 4l-2.7 5l-3 4l-12.4 14l-4.8 7l-3.5 9l-0.8 10l0.4 1.2l2 0.5l29 0l1.4-0.7l0.3-2l-0.2-1l-1.5-0.7l-25-0.1l-1.5-1.2l0.6-6l3.5-8l4.1-6l11.3-12.4l4.1-5.6l3.6-7l1.4-6l0.1-5l-0.9-6l-2.1-5l-2.2-2.7l-4-2.8l-4-1.1l-5-0.2zM965 553.7l-5 2l-2.6 2.3l-2.7 4l-1.4 4l-0.7 6l0.2 45l0.7 4l1.5 3.9l2 3l3 2.6l5 2.2l9 0.1l4.9-1.8l3.7-3l2.5-4l1.5-5l0.4-6l-0.2-44l-0.8-4l-1.5-4l-2.2-3l-2.3-2l-3-1.6l-4-1l-5-0.2zM1045 554l-2 0.8l-0.3 1.2l0.3 75.9l1 0.7l2 0l1.2-0.6l0.3-1l0.1-26l3.2-6l2.2-2.5l1 0.4l1.4 2.1l18.8 32l1.8 1.6l2 0l1.1-0.6l-0.5-2l-22-39l0.4-2l20.6-34l-1.6-1l-2 0.2l-1.1 0.8l-22.8 37l-1.1 1.4l-1 0.3l-0.4-2.7l0-35l-0.6-1.5zM1105 554l-1 0.2l-0.8 1.8l0.3 76l2.5 0.6l1.1-0.6l0.4-1l0-58l0.5-6.4l1 1.5l1.1 3.9l13.4 57l1.2 3l2.3 0.5l2.1-0.5l1.2-3l13.7-58.9l1-3.2l1-0.3l0.3 64.4l0.7 1.3l3 0.2l0.8-2.5l-0.1-75l-1.7-1l-4 0.1l-1.5 0.9l-15.4 65l-1.1 1.5l-1.2-2.5l-15.3-64l-1.5-1zM2142 555l-0.8 1l-0.5 2l1.3 2.2l3 0.6l2-0.8l0.9-1l0.4-2l-1.3-2.2l-3-0.5zM2111 555.8l-1.8 3.2l0.2 1l1.6 2l2 1.3l2 0.6l2-0.1l1-0.6l1-2.2l-1-2.5l-4-3zM330 557.9l6-0.2l5 2.1l3.2 4.2l1.6 6l-0.2 48l-1.2 4l-2.4 3.7l-3.5 2.3l-3.5 0.6l-6-0.4l-3.7-2.2l-2.6-4l-1.3-5l0.2-49l2.4-6.1l3-2.8zM967 557.8l6 0.1l4.5 2.1l3 4l1.7 7l-0.1 46l-1.4 5l-2.6 4l-3.1 2l-4 0.7l-6-0.6l-3.4-2.1l-2.7-4l-1.3-6l0.3-48l1.2-4l1.9-3l2.6-2zM2095 572.8l-2.1 3.2l-1.2 6l0.8 4l2.5 1.6l2-0.7l1.4-1.9l0.3-5l1-4l-0.4-2l-1.3-1.4l-2-0.2zM2053 576.8l-2.1 2.2l-0.6 4l1.7 2.8l3 0.8l3-1.6l0.6-3l-1.1-4l-0.9-1l-1.6-0.6zM2075 588.6l-3.7 3.4l-1.2 3l0.5 4l1.5 2l1.9 0.8l2-0.5l1-1.3l0.4-4l1.3-4l-1.5-3zM806 590.9l-1 1.1l-0.1 1l0.1 1.1l1 1.1l18 0.1l1.4-1.3l0-2l-1.4-1.2zM2042 599.8l-2.1 1.2l-1.9 2l-0.5 1l0.2 2l1.3 1.5l2 0.6l1 0.9l2 2.9l2 0.5l2-1.1l1-1.4l0.1-1.9l-1.1-2l1.2-3l-0.2-1.8l-0.7-1.2l-1.3-0.7l-3-0.1zM2072 619l-2 0.6l-2 1.5l-0.7 1.9l0.3 3l3.3 5l4.1 2.1l2 0.1l2-1.2l0.5-1l-0.1-2l-1.6-3l0.6-2l-0.1-2l-2.3-2.5zM2368 1414.5l-2.1 2.5l-0.7 4l0.5 2l2.3 1.5l1.8-0.5l1.2-1l1.8-5l-0.5-2l-1.3-1.3l-1-0.5zM2385 1418.7l-1.5 2.3l0.5 2.1l2 1.6l2 0l1-0.6l1-2.1l-0.4-2l-1.6-1.5zM2321 1439.5l-2.3 2.5l-1.2 3l0.5 2.4l2 1.4l2-0.1l1.4-0.7l2-5l-0.1-2l-1.3-1.5l-2-0.4zM2342 1440.9l-1.6 2.1l0 2l1.6 1.7l3 0l2.3-2.7l-0.3-2.8l-2-1.2zM2375 1443.9l-1 1.1l-0.4 2l1.4 2.8l2 1.2l3-1l0.6-3l-1.2-2l-2.4-1.5zM2363 1444.9l-2 2.1l0.1 2l1.9 1.8l3-0.1l1.6-1.7l0.1-2l-0.5-1l-2.2-1.3zM2299 1447l-2.6 1l-0.8 1l-0.2 2l1.6 2.9l2 1l2.3-0.9l1-3l-1.2-3zM2345 1452.4l-1.4 1.6l0.1 3l2.3 1.8l2-0.3l1.3-1.5l-0.1-3l-2.2-1.9zM2380 1456.9l-2.2 2.1l0.2 2l2 2l3-0.1l1.5-1.9l-0.1-2l-1.4-1.7zM2364 1466.9l-2.8 1.1l-1.7 3l0.5 3l2 1.1l3-1.1l1.9-3l-0.5-3zM2372 1477.7l-1.6 1.3l0.1 3l1.5 1.3l2-0.1l1.4-1.2l0.1-3l-1.5-1.3zM2378 1498.9l-2 1.4l-1 1.7l-0.4 2l0.4 2l1.2 2l1.8 1.4l4 0.3l1-0.7l0.6-2l-0.8-3l-0.3-4l-1.5-1.3zM2377 1517.6l-1.5 1.4l-0.3 1l0 2l0.8 1.7l1 0.7l2 0l3-1.4l0.9-2l-0.9-2.8l-2-0.9zM1783 1568.5l-2 1.5l-1.3 3l0.4 2l1.9 1.6l2-0.2l1-0.7l2-2l0.8-1.7l-0.1-2l-0.7-1.1l-2-0.9zM1796 1588.6l-1.4 1.4l-0.2 3l1.6 2l2 0.2l2-1.4l0.6-2.8l-1.6-2.2zM1806 1612.4l-1.8 2.6l0.1 2l0.7 1l2 0.9l3-0.4l1-0.7l1.1-1.8l-0.8-3l-1.3-0.8zM1784 1617.5l-2 1.5l-1.2 3l0.8 2l2.4 1l3.2-1l1.3-3l-0.6-2l-0.9-1.1zM1817 1628.6l-2.6 2.4l-0.1 2l2.7 3.9l1 0.5l2 0.1l1-0.5l1-1.8l-0.4-3.2l-1.6-2.4l-2-1.1zM1763 1629.8l-2.4 1.2l-0.7 3l0.9 4l2.2 0.9l2.3-0.9l1.2-3l-1.1-4zM1792 1632.9l-1.9 1.1l-0.7 1l-0.2 4l0.7 2l0.9 1l2.2 0.4l1-0.5l1.3-1.9l0.5-5l-0.4-1l-1.3-1zM1836 1645.9l-2.3 1.1l-1 4l0.9 3l1.4 1.2l1 0.1l2.4-1.3l1-2l0.2-2l-1-3zM1746 1652.9l-2.1 2.1l-0.2 2l1.2 2l1.1 0.7l3-0.1l1.4-1.6l0.1-3l-1.5-2zM1773 1652.9l-2.5 3.1l-0.6 2l0.1 2l3 5.8l1 0.6l2 0.1l1.1-0.5l1.1-2l-1-5l0.2-4l-1.4-1.8l-2-0.5zM1811 1654.8l-1.7 2.2l-0.1 3l1.8 2l3 0l1.5-1l0.4-1l-0.3-4l-1.6-1.5l-2-0.2zM1795 1660.6l-1.2 1.4l-0.7 2l0.9 2.8l1 0.8l2 0.4l3-1l0.6-1l0.2-2l-1.4-3l-2.4-1zM1750 1678.5l-1.6 2.5l0.5 2l2.1 2.4l3 0l1.4-1.4l0.2-1l-0.7-3l-1.9-1.5zM1779 1682.5l-1 0.8l-0.6 1.7l0.9 3l2.7 2.7l2 0.3l1-0.4l1.5-1.6l0.1-1l-1-3l-2.6-2.4zM1758 1703.9l-1.7 2.1l0.5 2l1.2 1.2l3 0.9l2-0.8l1-1l0.5-2.3l-1.5-1.7l-2-0.8zM1733 1721.8l-1.3 2.2l0.3 2l2 1.6l2-0.3l1.9-2.3l0-2l-1.9-1.7zM1714 1749.6l-2.1 1.4l-1.4 3l0.5 3l2 1.1l3-1.1l2.2-3l0.5-2l-0.2-1l-1.5-1.4zM721 1886.5l-2.5 2.5l-0.4 3l0.7 3l2.2 0.8l2-0.8l0.9-1l1.6-4l-0.4-2l-1.1-1.3zM2154 1910.8l-1.1 2.2l1.4 3l2.7 1.3l3-1l0.6-2.3l-1.6-2.6l-3-1.3zM2104 1915.9l-4 1.9l-4 0.9l-1 2.3l0.5 2l2.5 1.7l2 0.2l3-0.8l3-1.8l1.5-2.3l0.2-2l-0.4-1l-1.3-1zM2138 1917.9l-6 1.8l-3 2.3l-0.9 2l0.9 2.8l1 0.7l2 0.2l4-2.2l4-1.1l2.4-1.4l1.2-2l-0.6-2.3l-2-1.1zM709 1930.8l-2.2 1.2l-0.8 2l0.9 2l2.1 1l2.5-1l1.1-3l-1.6-2zM1556 1932.3l-1.5 1.7l0 4l1.7 2l2.8 0.2l1.4-1.2l0.4-1l-0.4-4l-1.4-1.5zM2075 1933.8l-2 2.2l-0.5 2l0.1 2l2.1 4l1.3 0.7l2-0.1l1-0.7l0.8-1.9l-0.3-7l-1.5-1.5zM2052 1938.7l-1.3 3.3l0.4 4l1.2 2l2.7 0.5l1-0.6l1.2-1.9l0.1-6l-2.3-1.9zM2010 1939.7l-2.4 1.3l-0.7 4l1.1 4.5l1 0.9l2 0.5l2-0.8l0.7-1.1l0.1-6l-0.8-2.1l-1-0.8zM707 1946.9l-1.6 2.1l-0.1 2l0.7 1.5l4 4l2 0.3l2-0.8l0.8-2l-0.8-3.2l-4-4.1zM1538 1947.8l-2 0.9l-1 1.3l-0.4 2l0.7 2l0.8 1l1.9 0.8l5-0.3l1.4-1.5l-0.2-3l-3.2-2.6zM2037 1949.6l-2.3 2.4l0.4 3l2.9 1.6l3-0.3l2-1.1l0.6-2.2l-0.7-2l-2.9-1.7zM2060 1950.7l-2.2 2.3l-0.1 3l1.7 4l2.6 0.9l1.9-0.9l0.6-1l0.1-6l-1.6-2.1zM2021 1952.5l-1.5 1.5l-0.3 2l2.8 3.4l2 0.4l3-0.3l2.5-1.5l0.6-2l-1.1-2.1l-5-1.7zM1999 1955l-1.9 2l-0.5 3l2.2 4l2.2 0.6l2-1.2l0.6-1.4l-0.2-5l-2.4-2.3zM1567 1956.7l-1.9 1.3l-0.6 2l0.7 2l2.8 1.6l2.5-1.6l0.4-2l-1.9-2.9zM1982 1961.6l-1.5 2.4l0.8 2l2.7 1.3l3-1.3l0.5-2l-1.1-2l-2.4-0.8zM718 1966.4l-1.4 1.6l0.1 3l2.3 2.2l2-0.2l1.9-2l-0.3-3l-1.6-1.6zM2063 1968.9l-1.4 2.1l0.8 3l0.7 1l1.9 1l2-0.2l1-0.9l0.6-1.9l-1-3l-1.6-1.3zM1540 1975.7l-1.9 1.3l-0.5 2l1.6 3l2.8 0.6l2-1.6l0.2-3l-1.2-1.5zM701 1978.7l-1 0.5l-1.1 1.8l0.3 3l2.5 4l2.3 1.3l1-0.1l2-1.3l0.5-2.9l-3.5-5.6l-1-0.7zM1517 1981.7l-2.4 5.3l-0.3 2l1.7 1.9l2 0.3l2-0.7l2-1.9l0.8-1.6l0.1-2l-0.6-2l-1.3-1.2l-2-0.6zM2040 1986l-2.5 3l0 2l1.5 1.8l3 0.3l2.5-2.1l0.3-3l-0.8-1.6l-1-0.7zM2014 1987.5l-2 2.5l0.6 3l1.4 1.5l2 0.9l3-0.5l1.3-1.9l-0.4-4l-1.9-1.6zM1575 1988.7l-1.4 1.3l-1.2 3l0.2 1l1.4 1.6l2 0.3l3.2-1.9l1.2-2l0.1-2l-0.6-1l-1.9-0.9zM1491 1989.7l-1.7 2.3l-0.2 2l0.9 2l3 1l3-0.9l1.3-2.1l-1.1-3l-2.2-1.5zM1991 1989.9l-2 1l-0.6 1.1l0.2 3l2.4 3l3 0.4l1.5-1.4l0-3l-1.9-3zM1605 1990.9l-3 0.8l-1.1 1.3l-0.4 2l1.5 2.3l4 0.2l3-2.6l0.3-1.9l-0.6-1l-1.7-1.1zM2004 1991.5l-1 0.8l-0.6 1.7l0.3 2l1.1 2l3.2 2.7l3-0.2l1.3-1.5l0.1-1l-1.2-3l-3.2-3.3zM1548 1992.8l-2 1.5l-0.4 2.7l1.7 2l2.7 0.2l2.3-2.2l0-2l-1.3-1.7zM1523 1993.4l-1.6 1.6l-0.8 5l1.4 2.4l2 0.5l1.4-0.9l1.5-2l0.8-4l-0.7-1.7l-1-0.8zM2032 1993.4l-1 0.8l-0.6 1.8l0.9 3l2.7 1.8l3-0.5l1.1-2.3l-1.1-2.8l-2-1.7zM711 2000l-1 0.3l-1.3 1.7l-0.1 5l1.4 2.3l3 0.3l1-0.6l0.9-2l-0.2-5l-0.7-1.3l-1-0.6zM2187 1999.6l-1.4 1.4l0.1 1l19 49l1.3 1.8l1 0.1l1.2-0.9l-0.6-3l-18.5-48l-1.1-1.4zM684 2004.8l-2 1.4l-0.2 2.8l1.3 2l2.9 0.6l2-1.6l0.1-3l-1.1-1.5zM1512 2005.9l-1.6 1.1l-0.4 3.1l1 1.3l1 0.4l3-0.5l1.4-2.3l-0.5-2l-1.9-1.2zM2012 2007.9l-1.1 1.1l-0.7 2l0.7 3l2.1 2.3l2 0.5l2-0.4l1.5-2.4l-0.6-2l-2.9-4l-2-0.4zM1475 2008.9l-1 2.1l1 2.4l3 1.1l2-1l0.7-2.5l-1.2-2l-2.5-0.9zM2209 2009.5l-0.7 1.5l0.1 2l6.1 41l0.5 1.2l2 0.3l0.8-1.5l-0.1-2l-6.2-41l-0.5-1.2zM1999 2011.5l-0.9 1.5l0.3 3l1.6 1.4l3-0.4l1.4-2l-1.2-3l-2.2-1zM2258 2013.4l-0.8 0.6l-0.7 2l-5.2 35l0.1 2l1.6 0.9l1.5-0.9l0.8-4l4.9-34l-0.4-1zM2247 2014.6l-1.2 1.4l-5.3 19l0.3 2l1.2 0.5l1.2-0.5l1.2-3l4.3-16l0.3-2.2l-0.5-0.8zM2219 2016.7l-0.6 1.3l1.1 14l0.5 1.5l1 0.5l1.8-1l0.1-1l-1.2-14l-0.7-1.5zM2155 2017.9l-0.8 1.1l0.2 1l31.3 44l2.3 2.8l1 0.4l1-0.5l0.5-1.7l-1.1-2l-27.8-39l-4.6-6.1l-1-0.4zM2232 2017.9l-1 0.3l-0.7 1.8l-0.6 9l0.2 1l1.1 0.7l1-0.2l0.9-1.5l0.8-9l-0.7-1.9zM2311 2017.7l-1.4 1.3l-25.1 39l-0.4 2l0.9 1l1 0.3l1.5-1.3l25.7-40l-0.2-1.4zM700 2018.5l-1.5 1.5l0.1 3l2.4 1.5l2-0.3l1.7-2.2l-0.3-2l-1.4-1.5zM721 2020.4l-1.6 1.6l0.2 3l2.4 2.8l3 0.1l1.6-1.9l-0.4-3l-2.2-2.2zM2290 2023.6l-1.2 1.4l-11.1 22l-0.5 2l0.8 1.2l1 0.2l0.8-0.4l1.5-2l10.8-22l0.2-1l-0.6-1zM2039 2024.5l-1.5 1.5l-0.2 2l1.7 1.8l2 0l1.9-1.8l-0.3-2l-1.6-1.4zM2269 2025.6l-5.7 19.4l-0.1 2l0.8 0.7l1 0.2l1.2-0.9l5.5-19l-0.1-2l-0.6-0.6zM2187 2029.4l-1.1 1.6l0.4 1l4.7 7.7l1 0.8l1-0.1l1.3-1.4l-0.8-2l-4.5-7.1l-1-0.6zM2178 2030.9l-2 0.9l-0.1 1.2l7.4 12l1.7 0.8l1-0.4l0.5-1.4l-1.1-2l-6.2-10zM679 2032l-2.1 1l-0.7 2l0.2 2l1.6 2.4l3 1l2.2-1.4l0.4-2l-1.9-4l-1.7-1zM715 2039.7l-1.5 1.3l-0.3 3l1.8 1.6l3-0.2l1.8-2.4l-0.4-2l-1.4-1.4zM759 2041.5l-2.1 3.5l0.1 3l2 2.6l3-0.1l1-0.7l0.8-1.8l-0.2-5l-1.6-1.7zM2162 2042.6l-1.3 1.4l0.2 1l9.1 11.7l1 0.7l1-0.2l1-1.2l-0.7-2l-8.3-10.6l-1-0.9zM2007 2043.8l-2 1.1l-0.8 1.1l-0.5 3l1.7 3l2.6 1.1l2-1l0.6-1.1l0.1-5l-0.7-1.4zM674 2044.6l-1.4 1.4l-0.3 1l0.4 2l0.8 1l4.5 2.7l2 0l1.4-0.7l1-2l-1.4-3l-4-2.3zM2311 2044.6l-1.6 1.4l-10.7 15l-0.7 2l1 1.2l1 0.1l1-0.8l12.1-16.5l-0.1-1.4zM737 2047.8l-2 1l-1 1.2l-0.2 1l0.9 2l3.3 1l3-0.7l1.7-2.3l-0.3-2l-2.4-1.7zM2148 2050.5l-1 1.5l1.4 2l16.1 13l1.5 0.6l1.1-0.6l0.3-2l-0.9-1l-16.2-13zM696 2052.6l-2.1 1.4l-0.4 3l2.5 3.4l3 0.4l2-1.8l0-2l-3-4zM2113 2053.5l-0.9 1.5l0.5 1l3.2 3l41.7 36l1.5 0.4l0.5-0.4l0.8-1l-0.1-1l-0.9-1l-44.3-38.2zM799 2056.6l-2.3 2.4l0 2l2.3 2.2l2 0.1l2-1.6l0.3-2.7l-1.3-2zM2317 2057.9l-7.5 8.1l-0.4 1l0.9 1.6l1 0.3l1-0.6l6.5-7.3l0.5-1l-0.2-1zM2339 2057.9l-23.8 19.1l-0.7 1l0.5 1.4l1 0.7l2-0.9l22.6-18.2l0.8-1l0.1-1l-1.5-1.4zM660 2060.9l-2.2 1.1l-0.6 3l1.8 2.4l2 0.3l2.5-1.7l0.3-2l-0.8-2zM2017 2063l-2.4 3l0 2l1.8 2l2.6 0.1l2.8-2.1l0.3-3l-2.1-2.3zM2142 2062.6l-0.6 1.4l0.4 1l12.2 12.5l2 1.2l1.3-0.7l0.5-1l-0.3-1l-4.5-4.7l-9-8.8l-1-0.3zM683 2069.8l-1.4 2.2l0.4 2l2 1.6l3-0.2l1.4-2.4l-0.5-2l-1.9-1.5zM2352 2071.8l-36 19.2l-1.1 1l0.1 1.3l1 1l2-0.6l37-19.3l0.8-1.4l-0.8-1.6l-1-0.3zM2112 2072.7l-1.7 1.3l-0.1 1l0.9 1l27.9 20.5l3 1.8l1.1-0.3l0.7-1l0-1l-2.2-2zM858 2074.6l-2.5 1.4l-1.2 2l0.1 2l1.6 1.5l8-0.1l2-0.9l1-1.5l0-2l-2-1.9l-3-0.7zM833 2075.9l-1.2 1.1l-1.1 3l1.3 2.6l2 0.4l2-0.7l1.2-1.3l0.6-3l-0.3-1l-1.5-1.4zM711 2076.9l-2 1.2l-0.5 0.9l0.1 2l2.4 3.1l3 0.3l1.7-2.4l-0.4-3l-1.3-1.5zM772 2076.7l-2.4 2.3l-0.3 2l0.7 1.7l1 0.8l2 0.2l2.7-1.7l0.8-3l-1.5-2.1zM813 2080.8l-2.3 2.2l1.2 5l2.1 2.4l1 0.5l2-0.3l1.5-1.6l0.1-2l-0.6-1.9l-2-3.7l-1-0.6zM734 2082.6l-1.2 1.4l-0.2 2l1.3 2l1.1 0.5l7 0.5l1.9-1l0.6-1l0-2l-2.5-2.3l-5-0.6zM863 2085.9l-1.4 1.1l-0.4 2l0.8 1.5l2 0.8l2.2-1.3l0.4-2l-1.6-2zM881 2088.6l-2 2.4l0.3 2l2.7 2.4l3-0.1l1.8-2.3l0.1-2l-0.8-2l-2.1-0.8zM2343 2089.8l-11.4 10.2l-0.5 1l0.9 1.5l1 0.4l1-0.3l10.4-9.6l0.7-1l0-1l-1.1-1.2zM657 2093.9l-2 0.5l-1.4 1.6l-0.1 3l1.5 1.6l4-0.1l2.2-2.5l-0.9-3l-1.3-0.8zM668 2093.6l-1.3 1.4l-0.2 1l1.5 3.3l4 2.3l2-0.4l1-0.7l0.7-2.5l-1.7-2.6l-3-2.1zM788 2093.8l-1.7 2.2l-0.3 4l1 3l2 0.6l1.7-0.6l0.8-1l1-5l-0.5-1.8l-1-1.1zM2197 2093.6l-0.6 1.4l-0.7 10l0.1 10l0.4 3l0.8 1.1l1 0.2l1-0.8l0.4-1.5l0.2-22l-0.6-1.4l-1-0.4zM2246 2093.6l-1 0.5l-0.3 0.9l0.6 5l-1.3 3l1.8 1l0.4 1l1.9 13l0.9 1.9l1 0.4l1-0.5l0.7-1.8l-1.8-15l1.1-0.8l2.7-0.2l-0.6-1l-3.1-0.1l-1-0.7l-1.4-5.2zM834 2095.8l-1.4 2.2l0.5 2l1.9 1.6l3-0.2l1.3-2.4l-0.6-2l-1.7-1.5zM2119 2096.7l-0.8 1.3l0.3 1l1.3 1l10.2 5.7l1 0.2l1-0.9l0.5-1l-0.5-1.2l-11-6.1zM2209 2097.7l-2 3.3l-0.2 1l1.2 0.8l1.3-0.8l1.5-3l-0.8-1.5zM2239 2098.4l-2.5 3.6l-0.1 1l0.6 0.6l2-1.1l1.7-2.5l0.1-1l-0.8-0.8zM749 2099.7l-2.1 1.3l-0.7 3l0.8 1.9l1 0.9l2 0.4l2.1-1.2l0.7-3l-0.8-2.2zM704 2100.9l-3 1.5l-1.6 2.6l0.6 2.6l2 1.3l2-0.3l3.4-3.6l-0.1-2l-0.7-1zM2272 2101.9l-0.9 1.1l-0.3 3l0.8 10l1.2 2l1.2 0l0.8-1l0.1-9l3.1-3.2l2-0.7l3 0.7l2 1.9l2 4.3l0.8 4l1.2 1.2l1.1-0.2l0.6-2l-0.6-4l-1.1-3l-2-2.6l-3-1.5l-2-0.3l-7 1.6l-2-2.2zM2356 2102.8l-23 7.8l-2 1l-0.6 1.4l0.6 1.1l2 0.1l24-7.9l1.6-1.3l0-1l-0.6-1.1zM2211 2103.7l-6 3.1l-2.9 3.2l-0.5 3l0.9 2l1.5 1.4l4 0.2l4-1.8l2 2.6l1 0.1l0.5-0.5l0.3-4l-1.4-5l0-3l-1.4-1.6zM2225 2103.8l-2.6 1.2l-3.1 3l-1.8 3l-0.1 2l1.9 3l2.7 1.5l7.5-0.5l0.6 1l-0.4 3l-0.5 2l-1.2 1.6l-2 0.1l-5-4.4l-1.5 0.7l-0.1 1l1.2 2l2.4 1.4l6 0.1l2-0.9l1.7-2.6l0.4-5l-0.9-9l-1-3l-1.2-1.2l-2-0.3zM2264 2103.4l-5.4 2.6l-4.2 4l-0.5 2l0.4 2l1.7 2.3l4 0.4l4-1.9l1 0.6l1 1.7l1 0.5l0.9-0.6l0.4-2l-1.5-6l-0.1-4l-0.7-1.2zM2185 2104.5l-1 0.6l-6 8.5l-1 0l-1-0.8l-5.4-6.8l-1.6-0.2l-0.6 1.2l6.5 10l2.1 1.1l1.9-1.1l6.3-9l0.9-3zM2227 2104.7l2 1.3l0.1 5l-0.9 3l-1.2 1.7l-1 0.9l-1 0.1l-2-1.1l-1.3-1.6l-0.3-4l1.6-2.9zM2190 2105.6l-0.9 2.4l-0.1 7l0.8 3l1.2 0.7l1-0.2l0.8-1.5l-0.1-10l-0.7-1.3zM2238 2105.5l-1 2.5l-0.2 7l0.8 3l1.4 0.7l1-0.4l0.7-1.3l-0.5-4l0.1-6l-1.3-1.6zM2295 2105.7l-0.8 2.3l0 8l0.7 2l1.1 0.7l1-0.2l0.8-1.5l-0.2-10l-0.6-1.3zM682 2106.8l-1.5 1.2l-0.5 2l1 1.9l2 0.6l2.4-1.5l0.2-2l-1.6-1.9zM2208 2106.7l1-0.3l1.3 0.6l0.4 1l-0.4 3l-1.9 3l-2.4 0.7l-1-0.6l-0.5-1.1l0.2-2l0.9-2zM2261 2106.5l1.8 0.5l0.4 1l-0.9 4l-1.5 2l-2.8 0.6l-1.2-1.6l0.2-2l1.8-3zM648 2107.8l-2.5 1.2l-1.1 2l0.6 1.9l2 1.4l1 0l2-1.1l1.1-2.2l-0.6-2zM2099 2107.9l-0.5 2.1l2.5 1.2l42 7.2l1-0.2l0.7-1.2l-0.7-1.7l-3-0.8l-40-6.8zM2113 2119.9l-0.4 2.1l1.4 0.8l14 1.9l1.5-0.7l-0.1-2l-1.4-0.6l-13-1.9zM2339 2124l-0.6 2l1.6 0.9l11 0.1l2.1-1l-0.1-1.3l-2-1zM2108 2128.2l-0.7 1.8l0.7 1l2 0.7l21 3.3l1-0.2l0.6-0.8l-0.4-2l-1.2-0.6l-19-3zM2198 2137l-2 1.3l-1.5 2.7l-0.2 9l-1.6 3l2.3 1.8l0.7 3.2l1.3 1.1l1.6-1.1l0.4-4.8l3.2-1.2l-3.2-0.9l-0.9-1.1l-0.4-5l0.6-5l1.7-2.3l1-0.2l4 1.6l0.3-1.1l-2.3-1.5zM2261 2137.9l-1.6 15.1l0.1 5l1.5 1.2l1.6-1.2l0.3-5l1.1-1.3l3.1 3.3l2.6 4l1.3 0.7l1-0.2l0.6-1.5l-0.4-1l-6.7-9l0.5-2.2l1.6-0.8l-3.6-0.4l-0.5-1.6l0-5l-1.5-0.9zM2329 2137.3l-0.7 1.7l0.7 1l1 0.2l43 2.6l2-0.5l0.6-1.3l-0.3-1l-1.3-0.7l-37-2zM2212 2139.8l-3 1.5l-1.3 2.7l-0.4 4l1.3 4l2.4 2.6l2 1.1l6-0.4l2.4-2.3l1.2-3l-0.1-3l-1.3-4l-1.5-2l-2.7-1.3zM2246 2139.9l-2.5 1.1l-1.2 2l-0.5 5l1 4l1.8 2l2.4 1.5l6-0.1l2.1-1.4l1.6-3l0-5l-1.1-3l-1.6-2l-3-1.4zM2112 2141l-0.1 2l1.1 0.6l9 1.3l1.6-0.9l-0.3-2l-1.3-0.6l-8-1.1zM2213 2140.3l2 0.4l2 1.8l1.1 1.5l1.1 3l-0.4 5l-1.8 2.6l-1 0.3l-1-0.3l-2-2.1l-2-3.5l-0.6-2l0.3-4zM2247 2140.4l2 0.1l2 1.4l2 3.3l0.1 6.8l-2.1 2.9l-2-0.5l-1-1l-3-5.4l-0.1-4zM2230 2145.9l-3 2.1l-2.3 3l-0.5 2l0.3 2l1.5 2.4l2 1.3l8-0.4l0.2 4.7l-0.9 2l-1.3 1l-2-0.4l-4-4.1l-1.7 0.5l0 2l1.7 1.9l2.8 1.1l5.2-0.3l2-1.2l1.6-2.5l0.1-8l-0.9-6l-1.8-3.4l-1-0.3l-1 0.5l0.7 4.2l-0.8 5l-1.9 2.1l-2 0.4l-2.3-1.5l-1-3l0.6-3l3.3-4zM2342 2150l-0.6 2l1.6 1.2l9 1.3l1.4-1.5l-0.4-1.3l-2-0.8l-8-1.2zM2094 2152.2l-0.9 0.8l-0.2 1l0.5 1l1.6 0.5l43 2.3l1.8-0.8l0.1-1l-0.5-1l-1.4-0.5zM2337 2159.7l-1 0.3l-0.6 2l0.6 1l1 0.4l21 3.2l2-0.1l0.6-0.5l-0.2-2l-1.4-0.7zM2116 2167.6l-1.3 1.4l0.1 1l1.2 1l12 0.1l1.7-1.1l-0.4-2l-1.3-0.5zM2339 2170.4l-0.7 1.6l0.5 1l1.2 0.5l14 1.6l1.5-1.1l0-1l-1.5-1.1l-11-1.5zM2269 2175.8l-1 0.3l-0.6 1.9l-0.8 18l0.7 5l1.7 0.8l1.1-1.8l-0.1-12l0.7-9l-0.2-2zM2252 2176.4l-1.4 1.6l0.4 1.9l1 0.7l1-0.1l0.8-1.5l-0.4-2zM2288 2176.6l-0.6 1.4l0.7 5l-1.3 2l2.1 2l2.3 14l0.8 1.4l1 0.3l1-0.5l0.5-1.2l-1.9-15l1.4-1.4l3.1-0.6l-1.1-0.5l-3-0.2l-1-0.8l-2-5.5l-1-0.7zM2324 2176.7l-0.6 1.3l0.2 1l1.4 0.8l39 6.8l4 0.5l1-0.2l0.6-0.9l-0.6-1.9l-2-0.7l-41-7zM2256 2177.9l-0.1 1.1l1.1 0.8l1.5-0.8l-0.5-1.5l-1-0.3zM2134 2180.9l-23 7.6l-1.1 0.5l-0.4 2l1.5 1.1l2-0.5l22-7.4l2.2-1.2l0.2-2l-1.4-0.7zM2262 2180.3l-1.4 1.7l-0.5 4l-1.9 6l-2.2 3.3l-1 0.5l-2-0.3l-3.9-3.5l-1.1-4l0.1-5l-1.1-1.1l-1 0.5l-0.6 1.6l-0.3 6l0.6 2l2 3l2.3 1.4l3 0.5l4-0.6l3-1.5l2 2.7l1 0.2l0.8-0.7l-0.1-15l-0.7-1.4zM2175 2185.7l-2 0.9l-2.1 2.4l-0.9 4l0.2 3l0.8 1.7l2 1.8l2 0.7l3-0.1l0-0.4l-2-0.4l-2.2-3.3l-0.2-1l1.4-2l-1-0.7l-0.5-1.3l0.4-2l2.1-2.1l2 0.5l1 1.6l0.2 2l-1.8 2l1.6 0.6l2.9-1.6l0.7-2l-1.3-3l-1.3-1.3l-2-0.4zM2215 2186l-3.9 7l-1.1 0.9l-3-0.7l-5-2.4l-1 0.2l-0.4 1l1.1 1l6.3 2.9l1 1.1l-3.5 7l-0.2 1l0.7 1.3l1-0.1l1-1.2l3.9-7l2.2-1l-0.2-3l2.9-7l-0.8-1.4zM2223 2185.8l-2 1.2l-1.5 2l-1 4l0.3 3l1.2 2.3l2 1.5l2 0.5l2.9-0.3l-1.9-0.5l-2.6-3.5l-0.3-1l1.5-2l-1.4-1l0.4-3l1.4-1.7l1-0.6l1 0.3l1 1l0.5 3l-1.5 2l2 0.6l2.5-1.6l0.3-3l-0.9-2l-1.9-1.5zM2277 2185.9l-2 1.3l-1.3 1.8l-1 4l0.4 3l0.9 2l2 1.6l2 0.7l3-0.1l0.5-0.2l-0.5-0.7l-2 0.1l-2-2.6l-0.4-1.8l1.4-2l-1.3-1l0.2-3l2.1-2.2l2 0.8l1 3.4l-1.7 2l1.7 0.6l2.5-1.6l0.5-3l-1-2.2l-2-1.4zM2189 2186.9l-3 2l-2.6 3.1l-0.3 3l0.5 2l1.7 2l2.7 1.2l4-0.1l2-0.9l1 0.5l0 4.3l-1 2.6l-1 1.2l-2-0.5l-4-4.3l-1.3 0l-0.8 1l0.1 1l1 1.5l3 1.6l2 0.3l4-0.6l2.5-1.8l1.1-3l0-6l-0.9-7l-1.5-3l-1.2-0.6zM2238 2186.9l-0.7 0.1l2.7 2.1l1.4-0.1l0-1l-1.2-1zM2190 2187.8l3-0.6l1.3 1.8l-0.5 7l-0.8 1.4l-2 1.4l-1 0.1l-2-1.2l-1.3-2.7l0.2-3zM2235 2187.6l-2.7 3.4l0.3 2l1.4 1.4l6 2l1.2 1.6l-0.2 1l-2 1.4l-3-1.1l-1.4 0.7l0.9 1l1.5 0.4l5-0.7l1.8-1.7l0.1-2l-1.9-1.9l-5.1-2.1l-1.2-2l0.3-1.7l1-1.3l-1-0.7zM2337 2188.9l-1.1 1.1l-0.2 1l0.6 1l10.7 5.9l1 0.5l1.3-0.4l0.5-2l-0.8-0.7l-11-6.3zM2135 2191.8l-11.5 10.2l-0.6 1l1.1 1.7l1 0.1l1-0.6l10.4-9.2l0.5-1l-0.2-1zM2325 2196.7l-0.8 1.3l0.3 1l1.5 1.5l29 21.1l1 0.3l1.6-0.9l0.2-1l-0.8-1.3l-29-21.2l-2-1zM2309 2199.5l-1.1 1.5l0.3 1l3.8 3.7l47 41.6l3 2.1l1.3-0.4l0.5-1l-0.9-2l-48.6-43l-4.3-3.5zM2151 2200.6l-37.2 19.4l-1.3 1l0.1 2l1.4 0.7l1-0.3l37-19.7l1-0.7l0.2-1l-1.2-1.5zM2151 2215l-23.8 19l-0.6 1l0.4 1.5l1 0.7l1-0.3l23.6-18.9l0.9-1l0-1l-1.5-1.3zM2312 2216l-1.4 1l-0.2 1l0.5 1l12.9 13l1.2 0.5l1-0.5l0.6-1l-1-2l-11.9-12zM946 2219.9l-6 1.8l-7.4 4.3l-5.6 5.3l-4.2 5.7l-3.9 8l-2.3 8l-1.3 8l-0.3 11l0.9 8l1.9 7l3.2 6.4l4 4.7l4 3.2l7 3.3l9 1.8l7 0.2l8-1.1l6-2.2l4-2.3l0.6-1l-0.1-2l-0.5-0.4l-1 0.2l-5 2.5l-7 1.9l-7 0.5l-7-0.5l-5-1.1l-5-2.1l-4-2.7l-3.1-3.3l-3-5l-1.9-5l-1.2-5l-0.5-8l0.5-11l1.1-6l2.1-7l2.7-6l4.3-6.4l4-3.8l3-2.1l4-2.1l5-1.7l8-1.1l9 1l7 2.7l5.3 4.5l3.9 7l0.9 3l1.1 8l-0.1 7l-1.1 8l-2.1 7l-2.6 5l-3.3 3.5l-3 1.2l-2 0.2l-2.7-0.9l-1.4-2l-0.3-2l0.3-7l2.8-26l-1.7-1l-2 0.6l-1 4.1l-1 0.4l-2-2.7l-2-1.6l-4-1.3l-4 0l-5 2l-3 3.1l-2.2 4.4l-1.3 5l-1.2 12l0 8l1.2 4l1.5 2.4l2 1.8l4 1.5l5-0.2l3-1.2l2.8-2.3l2.2-2.8l1-0.1l3 4.5l4 1.4l5-0.6l5-3.2l4.1-5.2l3.4-8l2-10l0.3-10l-1.2-9l-2.2-6l-3.3-5l-4.4-4l-6.7-3.3l-6-1.3l-7-0.3zM875 2221.9l-6 1.6l-3.7 2.5l-2.9 4l-1.8 5l-0.6 6l0 43l0.4 4l1.2 4l1.6 3l2.5 3l3.3 2.2l4 1.4l7 0.2l5-1.5l3.6-2.3l2.6-3l2.2-5l1-7l-0.1-44l-1.9-8l-1.7-3l-2.7-2.8l-3-1.8l-3-1.1zM1220 2221.9l-4 0.8l-5 2.7l-3.5 4.6l-1.6 5l-0.6 6l0.1 45l1 5l1.3 3l3.3 4.1l3 2.1l4 1.4l7 0.2l5-1.6l3-1.9l2.1-2.3l2.3-4l1.4-6l-0.1-24l-0.7-0.9l-1-0.2l-11 0l-1 0.2l-0.8 0.9l0 2l0.8 0.9l8 0.3l1 0.7l0.3 1.1l-0.1 19l-1 4l-1.6 3l-3.6 3.1l-4 1.2l-5-0.2l-3-1.2l-2-1.5l-2.8-4.4l-1.2-6l0-43l0.8-6l2.5-5l3.7-2.8l6-0.8l3 0.3l2 0.8l3 2.3l2 3.3l1.2 4.9l0.2 8l0.6 1l1 0.4l2-0.2l0.8-1.2l-0.1-9l-2.1-7l-2-3l-2.1-2l-5.5-2.7zM1546 2221.9l-6 1.7l-3.3 2.4l-2.9 4l-1.8 5l-0.6 6l0.1 44l1.9 8l3.7 5l3.9 2.5l3 1l7 0.3l5-1.3l4-2.6l3.1-3.9l2.2-6l0.5-5l-0.1-44l-1.5-7l-1.5-3l-2.7-3.2l-3-2.1l-3-1.2l-4-0.7zM1601 2221.9l-4 0.9l-4.9 3.2l-3 4l-1.7 5l-0.5 6l0.2 46l1.3 5l1.4 3l3.8 4l2.4 1.4l4 1.3l7 0l4-1.2l3.8-2.5l2.6-3l1.9-4l1.3-7l-0.1-22l-1.5-1.1l-12 0l-1.6 1.1l0.1 2l0.5 0.7l8 0.4l1.7 0.9l0.3 1l0 17.2l-1 5.2l-1.8 3.6l-3.2 2.9l-4 1.4l-6-0.3l-4-2.2l-2.9-3.8l-1.3-5l0.2-49.9l1.5-4.1l2.5-3.2l4-2.1l6-0.2l4 1.3l4 4.2l2 7l0.2 7l0.5 1l2.3 0.4l1-0.4l0.6-1l-0.1-7l-1.9-8l-3.6-5.1l-3-2.2l-3-1.3l-4-0.6zM1656 2221.9l-4 0.9l-5 3.1l-2.5 3.1l-2.2 5l-1 6l0 44l1.1 6l1.1 3l1.9 3l2.6 2.6l3 1.9l3 1l8 0.2l5-1.7l4-3l2.7-4l1.9-6l0.1-49l-1.1-5l-1.3-3l-3.3-4.3l-3-2.1l-3-1.2l-4-0.6zM728 2222.5l-1.1 1.5l0 75l1.1 1.9l2 0.2l1-0.3l0.7-1.8l0.1-75l-0.8-1.4zM754 2222.6l-0.7 1.4l0.1 76l1.2 1l1.9 0l1.1-1l0.2-1l0-62l0.2-2.9l1-0.1l23.4 66l1.6 1l3-0.1l1.1-1.9l0-75l-0.4-1l-2.7-0.4l-0.9 1.4l0 60l-0.3 2l-0.8 0.7l-2-4.5l-20.6-58.2l-1.4-1.4zM811 2222.6l-0.8 1.4l0 75l0.8 1.9l2 0.2l1-0.2l0.8-1.9l0.2-32.4l1-1.1l1-0.1l17-0.1l1-1l0.3-1.3l-0.3-1.1l-1-0.7l-17 0l-1.1-0.2l-0.9-0.9l-0.1-32.1l0.9-1l1.2-0.2l21-0.1l1.5-0.7l0.2-2l-0.3-1l-1.4-0.6zM1006 2222.5l-1 0.5l-0.1 1l0.6 3l15.9 72l0.6 1.3l1 0.7l5 0.1l1.5-1.1l1.1-4l14.8-69l0.4-4l-2.8-0.5l-1.5 1.5l-14.3 66l-1.2 3.2l-1-0.6l-1-3.6l-14-64.6l-1-1.8zM1068 2222.6l-0.8 1.4l0 75l0.8 1.9l2 0.2l1-0.2l1-1.9l0-75l-1-1.5zM1094 2223l-0.4 77l0.7 1l1.7 0.4l26.3-0.4l1.2-1l0.1-2l-0.5-1l-1.1-0.4l-21 0l-1-0.1l-1-1l-0.3-71.5l-0.3-1l-1.4-0.6zM1161 2222.5l-1.4 2.5l-5.1 22l-11 53l1.5 1.1l2-0.4l0.6-0.7l3.4-14.9l1-1.1l22-0.3l1.4 0.3l1 1l3.6 15l1 0.9l3 0l0.6-1.9l-16.8-75l-0.4-1l-1.4-0.7zM1261 2222.8l-0.6 1.2l0 75l0.6 1.5l2 0.6l2-0.9l0.3-1.2l0-75l-0.4-1l-0.9-0.5zM1285 2222.6l-0.7 1.4l0.7 2.5l14 0.3l1.2 1.2l0.1 71l0.7 1.7l3 0.3l1-0.7l0.3-1.3l0.1-71l1.6-1.2l13-0.1l1.2-0.7l0.3-2l-0.5-1.1l-2-0.5zM1353 2222.7l-1.5 4.3l-15.8 73l1.3 1.1l2-0.2l0.8-0.9l3.3-14l1.4-2l22.5-0.2l1.9 1.2l3.5 15l1.6 1.1l2-0.2l0.8-0.9l-0.3-3l-16.3-73l-1.2-1.5zM1399 2222.5l-1 1.5l0.2 76l0.8 0.9l2 0.1l1-0.9l0.2-1.1l0-61l0.8-4.5l2 4l21.5 61.5l1.5 1.9l4-0.1l0.7-1.8l-0.3-76l-1.4-0.6l-2 0.2l-0.7 1.4l-0.3 61.7l-1-0.1l-1.1-2.6l-21.1-59l-0.5-1l-1.3-0.6zM1455 2222.7l-0.6 1.3l0 75l0.6 1.7l2 0.4l2-0.9l0.3-1.2l0-75l-0.4-1l-0.9-0.5zM1482 2222.6l-0.8 1.4l0 75l0.8 1.9l2 0.2l1-0.2l1-1.9l0-31l0.5-2l1.5-0.6l17-0.1l1-0.7l0.4-1.6l-0.4-1.3l-1-0.5l-17 0l-1-0.2l-0.8-1l-0.1-32l0.9-1l1-0.2l21 0l1.6-0.8l0.2-2l-0.3-1l-1.5-0.6zM1698 2222.6l-0.8 1.4l0.2 76l1.6 1.1l2-0.2l0.9-0.9l0.2-26l0.6-2l3.1-5l1.2-1.6l1-0.3l1.1 0.9l19.9 33.9l2 1.2l2-0.1l0.8-1l-0.3-1l-21.7-38l-0.6-2l21.2-35l0-1l-1.4-0.6l-2 0.1l-1.7 1.5l-22.1 36l-2.2 2.6l-0.7-0.6l-0.3-2l0-36l-1-1.4zM1782 2223l-0.2 77l1.2 1l1 0.1l2-0.3l0.6-0.8l0.4-35.1l2-1l20 0l2 0.7l0.4 1.4l0.1 34l1.5 1.1l3-0.4l0.7-1.7l-0.3-76l-3.4-0.6l-1 0.3l-0.6 1.3l0 33l-0.4 2l-2 0.6l-20 0l-1.8-0.6l-0.4-1l-0.1-34l-0.3-1l-1.4-0.6zM1839 2222.6l-0.8 1.4l0.4 64l2.1 6l2.1 3l2.2 2l6 2.6l8 0l4-1.4l4-3l2.3-3.2l1.9-6l0.4-6l0-58l-0.6-1.3l-2-0.3l-1.4 0.6l-0.4 1l0 58l-1 7l-1.2 3.1l-3 3.4l-3 1.6l-5 0.3l-3-0.4l-4-2.5l-2.4-3.5l-1.2-4l-0.2-63l-1.2-1.5zM2157 2225.9l-2.4 2.1l-5.2 6l-0.4 1l1 1.5l1 0.2l1-0.6l6.4-7.1l0.2-2zM873 2226.7l7-0.2l4 1.5l2.2 2l1.2 2l1.9 6l0.2 44l-0.4 5l-0.9 3l-2.3 4l-2.9 2.3l-3 1l-7-0.2l-3.8-2.1l-2.8-4l-1.4-6l0.1-47l0.8-4l2.1-4l2-1.9zM1544 2226.8l7-0.3l4.3 1.5l2.2 2l1.5 2.2l1.9 6.8l-0.2 47l-1.4 5l-1.9 3l-2.5 2l-3.9 1.3l-6-0.1l-4-1.9l-3.2-4.3l-1.3-5l0-48l0.5-3l1.7-4l2.3-2.6zM1654 2226.9l7-0.4l4.4 1.5l3.5 4l2.2 7l0 46l-1.4 5l-2.3 4l-2.4 2l-4 1.3l-6-0.1l-4-1.9l-3.1-4.3l-1.1-3l-0.3-3l0.3-49l1.2-3.5l1.5-2.5l2.5-2.2zM2279 2227.5l-1.6 1.5l1.6 3.3l31 43.3l2 1.7l1-0.4l0.8-0.9l-0.5-2l-31.3-43.8l-2-2.4zM2301 2227.7l-0.5 1.3l1.6 2l14.9 12.1l2 1.3l1.4-0.4l0.6-1l-1-2l-17-13.6l-1-0.2zM1164 2230.5l1 2.5l10.2 45l-0.5 1l-1.7 0.4l-19 0l-1.1-0.4l-0.4-1l0.3-2l9.1-41l1.1-3.9zM1356 2230.4l1.3 2.6l9.8 43l0.2 2l-0.4 1l-0.9 0.3l-19 0.1l-1.7-0.4l-0.6-1l10.2-46zM2168 2230.4l-3.1 3.6l-9.8 14l0 1l0.9 0.8l1 0.4l1-0.6l11.8-16.6l0.3-1l-0.5-1zM2182 2233.5l-1.6 1.5l-24.9 39l-0.6 1l0.2 1l0.9 0.7l1 0.3l1.2-1l25.1-39l0.7-2l-1-1.3zM2296 2237.6l-0.9 1.4l0.3 1l5.6 7.5l4 4.7l2-0.7l0.5-1.5l-3.5-4.5l-6-7.5l-1-0.6zM2208 2240.9l-1.5 4.1l-9.1 38l-0.3 2l0.9 1.5l1 0l1.3-1.5l10.3-42l-0.6-2.2zM2262 2242l-2 0.9l-0.1 1.1l3.7 10l13.2 34l1.2 1.5l2 0l0.4-1.5l-4-11l-13-33zM2188 2244.9l-12.2 24.1l0 1l1.2 1l1 0.1l1.1-1.1l11.6-23l0.2-1l-0.9-1.5l-1-0.2zM949 2245.9l5 0l3.7 2.1l1.4 2l1 3l0.1 5l-2.1 15l-1.8 4l-4.3 3.6l-5 0.8l-4-1.3l-2-2.1l-1-2l-0.5-5l0.3-7l1-8l1.4-4l2.8-4.1zM2235 2247.7l-0.6 2.3l-0.6 35l0.4 2l1.8 0.6l1.1-1.6l0.6-37l-0.7-1.5zM2283 2248.8l-1.4 1.2l0.1 1l7.3 12l1 0.8l1-0.1l1.1-0.7l-0.3-2l-6.8-11.1l-1-1.1zM2244 2252.9l-0.5 2.1l-0.8 21l0.3 1.5l1 0.8l1-0.1l1-1.2l0.9-22l-0.9-2.4zM2254 2252.7l-1.4 1.3l1.8 12l1.9 9l1.7 0.7l1.2-0.7l0.1-1l-2.9-19l-1-2zM2196 2253.6l-3.6 9.4l0.1 1l1.5 0.9l1.5-0.9l3.2-9l-0.7-1.4zM2275 2254.5l-1.2 1.5l0.9 2l4.3 6.8l1 0.7l1-0.1l1.2-1.4l-0.7-2l-4.5-7l-1-0.7zM2214 2255.5l-1.2 1.5l-0.9 12l0.2 1l1.9 0.7l1-0.7l0.3-1l0.6-12l-0.4-1zM2226 2258.4l-0.9 1.6l-1 9l0.9 1.3l1 0.1l1.2-1.4l1.4-9l-0.6-1.5zM1756 2291.8l-0.8 2.2l0.2 6l1.6 1.1l2-0.2l0.8-1.9l-0.1-6l-0.7-1.2z"></path>
</svg>